<svg width="4961" height="3964" viewBox="0 0 4961 3964" fill="none" xmlns="http://www.w3.org/2000/svg">
<rect x="0.5" y="0.5" width="4960" height="3963" stroke="black"/>
<path d="M2843.19 2122.02V2340.07M1533.39 2145.21H3013.45M1302 65L1306.37 65.0787L1536.85 296.134H1983.09V1748.35H2454.61L2668.54 1944.6V1626.24L3013.45 1281.72V2145.21H3428.22L3655.25 2363.26V69.361H3013.45V461.853L2541.93 941.564M3218.64 1879.18V522.908L2493.89 1255.56L1536.84 296.135V684.266H1306.36V65.0798L2502.63 68.0807V514.186L2135.89 889.233M2197.02 1238.11L2493.9 1539.02L2978.53 1046.23M2851.92 68.9553L3013.46 69.3605M3655.24 69.3614L3428.91 291.171V684.264M3013.46 296.134H3423.86L3428.92 291.171M3013.46 2371.98V2145.21M2668.53 1944.6L1756.05 1948.96V849.983M1536.84 2149.57V1626.24M2153.36 67.203V326.66M2328 67.6426V444.409L2004.92 765.361M2502.62 68.0798L2677.26 68.5179M2677.28 326.661V68.5176L2851.92 68.9557V396.437L2245.94 1006.98M3428.91 684.264L3655.24 684.265M3428.91 684.264V836.9M3428.91 1783.24V2145.88M3428.91 1783.24V1626.24M3428.91 1783.24H3655.24M3428.91 836.9H3655.24M3428.91 836.9V1155.25M3428.22 993.896H3655.25M3655.24 1155.26H3428.91V1312.25H3655.24M3428.91 1312.25V1469.25M3655.24 1469.25H3428.91V1626.25H3655.24M2842.14 2149.57V1778.88M2670.73 2149.54V2372M2498.25 2153.93V2371.98M2330.19 2149.54V2372M2151.17 2149.54V2372M1980.9 2149.54V2372M2153.36 1748.35V1451.8L2463.34 1756.36M1536.84 684.265V1155.25M1306.36 836.9H1536.84M1306.36 993.896H1536.84M1306.36 1155.26H1536.84M1536.84 1155.26V1312.25M1306.36 1312.25H1536.84M1536.84 1312.25V1469.25M1306.36 1469.25H1536.84M1536.84 1469.25V1626.25M1306.36 1626.24H1536.84M1306.36 1783.24H1536.84M2668.53 941.563L3196.81 396.436H3327.79L3323.43 998.257M1568.32 1312.25H1603.25V1255.56L1625.08 1303.53L1646.91 993.896L1664.38 1521.58L1686.2 1312.25H1721.13M1795.35 1312.25H1843.37L1860.83 993.896L1882.66 1521.58L1908.86 1312.25H1948.15M2214.48 1382.03L2493.9 1661.13L3004.72 1155.26M2345.46 1255.56L2493.9 1399.47L2869.37 1020.06M1725.49 2049.26H2223.21L2245.04 2001.29L2271.23 2088.51L2301.8 2049.26H2742.76M2428.42 1857.38H1882.67V1595.72M3061.48 1312.25H3087.68L3092.05 1246.84L3118.24 1512.86L3144.44 1312.25H3192.46M1419.87 304.855V605.765M1536.84 178.386H1913.22M3092.02 178.386H3428.9M3546.1 296.134V601.405M3546.1 1857.38V2145.2M3092.02 2258.59H3406.37M1536.84 2258.59H1908.86M1419.87 1857.38V2101.59M3253.58 1303.53H3284.14L3288.51 1242.48L3301.61 1290.45L3323.44 972.093L3340.9 1508.5L3367.1 1303.53H3397.66M1306.62 684.265V2367.62M1302 2362.99H3659.61M2699.09 344.105C2699.09 356.148 2689.32 365.91 2677.26 365.91C2665.2 365.91 2655.43 356.148 2655.43 344.105C2655.43 332.062 2665.2 322.3 2677.26 322.3C2689.32 322.3 2699.09 332.062 2699.09 344.105ZM2690.37 344.105C2690.37 351.33 2684.51 357.188 2677.27 357.188C2670.04 357.188 2664.17 351.33 2664.17 344.105C2664.17 336.879 2670.04 331.021 2677.27 331.021C2684.51 331.021 2690.37 336.879 2690.37 344.105ZM2559.42 945.925C2559.42 957.967 2549.65 967.73 2537.59 967.73C2525.53 967.73 2515.76 957.967 2515.76 945.925C2515.76 933.882 2525.53 924.12 2537.59 924.12C2549.65 924.12 2559.42 933.882 2559.42 945.925ZM2550.67 945.925C2550.67 953.151 2544.81 959.008 2537.57 959.008C2530.34 959.008 2524.48 953.151 2524.48 945.925C2524.48 938.7 2530.34 932.842 2537.57 932.842C2544.81 932.842 2550.67 938.7 2550.67 945.925ZM2218.85 1233.75C2218.85 1245.79 2209.08 1255.56 2197.02 1255.56C2184.96 1255.56 2175.19 1245.79 2175.19 1233.75C2175.19 1221.71 2184.96 1211.95 2197.02 1211.95C2209.08 1211.95 2218.85 1221.71 2218.85 1233.75ZM2210.11 1233.75C2210.11 1240.98 2204.25 1246.84 2197.01 1246.84C2189.78 1246.84 2183.92 1240.98 2183.92 1233.75C2183.92 1226.53 2189.78 1220.67 2197.01 1220.67C2204.25 1220.67 2210.11 1226.53 2210.11 1233.75ZM1782.26 836.9C1782.26 851.351 1770.53 863.066 1756.06 863.066C1741.59 863.066 1729.87 851.351 1729.87 836.9C1729.87 822.449 1741.59 810.734 1756.06 810.734C1770.53 810.734 1782.26 822.449 1782.26 836.9ZM1771.79 836.9C1771.79 845.571 1764.75 852.6 1756.07 852.6C1747.39 852.6 1740.35 845.571 1740.35 836.9C1740.35 828.229 1747.39 821.2 1756.07 821.2C1764.75 821.2 1771.79 828.229 1771.79 836.9ZM3240.47 1896.63C3240.47 1908.67 3230.7 1918.43 3218.64 1918.43C3206.59 1918.43 3196.82 1908.67 3196.82 1896.63C3196.82 1884.59 3206.59 1874.82 3218.64 1874.82C3230.7 1874.82 3240.47 1884.59 3240.47 1896.63ZM3231.72 1896.63C3231.72 1903.85 3225.86 1909.71 3218.62 1909.71C3211.39 1909.71 3205.53 1903.85 3205.53 1896.63C3205.53 1889.4 3211.39 1883.55 3218.62 1883.55C3225.86 1883.55 3231.72 1889.4 3231.72 1896.63ZM3004.7 1041.87C3004.7 1053.91 2994.93 1063.67 2982.87 1063.67C2970.82 1063.67 2961.04 1053.91 2961.04 1041.87C2961.04 1029.82 2970.82 1020.06 2982.87 1020.06C2994.93 1020.06 3004.7 1029.82 3004.7 1041.87ZM2995.99 1041.87C2995.99 1049.09 2990.13 1054.95 2982.9 1054.95C2975.66 1054.95 2969.8 1049.09 2969.8 1041.87C2969.8 1034.64 2975.66 1028.79 2982.9 1028.79C2990.13 1028.79 2995.99 1034.64 2995.99 1041.87ZM2865 1765.8C2865 1777.84 2855.23 1787.6 2843.17 1787.6C2831.11 1787.6 2821.34 1777.84 2821.34 1765.8C2821.34 1753.75 2831.11 1743.99 2843.17 1743.99C2855.23 1743.99 2865 1753.75 2865 1765.8ZM2856.28 1765.8C2856.28 1773.02 2850.41 1778.88 2843.18 1778.88C2835.95 1778.88 2830.08 1773.02 2830.08 1765.8C2830.08 1758.57 2835.95 1752.71 2843.18 1752.71C2850.41 1752.71 2856.28 1758.57 2856.28 1765.8ZM2175.2 344.105C2175.2 356.148 2165.43 365.91 2153.37 365.91C2141.31 365.91 2131.54 356.148 2131.54 344.105C2131.54 332.062 2141.31 322.3 2153.37 322.3C2165.43 322.3 2175.2 332.062 2175.2 344.105ZM2166.47 344.105C2166.47 351.33 2160.6 357.188 2153.37 357.188C2146.13 357.188 2140.27 351.33 2140.27 344.105C2140.27 336.879 2146.13 331.021 2153.37 331.021C2160.6 331.021 2166.47 336.879 2166.47 344.105Z" stroke="url(#paint0_linear_397_2)" stroke-width="25"/>
<mask id="path-3-outside-1_397_2" maskUnits="userSpaceOnUse" x="322" y="2527" width="4319" height="709" fill="black">
<rect fill="white" x="322" y="2527" width="4319" height="709"/>
<path d="M332 3075.24V2570.05H454.102V2976.08H664.266V3075.24H332Z"/>
<path d="M862.662 3082.39C822.866 3082.39 788.66 3074.25 760.047 3057.97C731.597 3041.53 709.643 3018.67 694.185 2989.4C678.892 2959.96 671.245 2925.84 671.245 2887.03C671.245 2848.05 678.892 2813.93 694.185 2784.66C709.643 2755.22 731.597 2732.36 760.047 2716.08C788.66 2699.64 822.866 2691.42 862.662 2691.42C902.458 2691.42 936.581 2699.64 965.031 2716.08C993.644 2732.36 1015.6 2755.22 1030.89 2784.66C1046.35 2813.93 1054.08 2848.05 1054.08 2887.03C1054.08 2925.84 1046.35 2959.96 1030.89 2989.4C1015.6 3018.67 993.644 3041.53 965.031 3057.97C936.581 3074.25 902.458 3082.39 862.662 3082.39ZM863.402 2991.37C877.873 2991.37 890.125 2986.93 900.156 2978.05C910.187 2969.17 917.834 2956.83 923.096 2941.05C928.523 2925.26 931.237 2907.01 931.237 2886.29C931.237 2865.24 928.523 2846.82 923.096 2831.03C917.834 2815.25 910.187 2802.91 900.156 2794.03C890.125 2785.15 877.873 2780.71 863.402 2780.71C848.437 2780.71 835.775 2785.15 825.414 2794.03C815.219 2802.91 807.407 2815.25 801.981 2831.03C796.718 2846.82 794.087 2865.24 794.087 2886.29C794.087 2907.01 796.718 2925.26 801.981 2941.05C807.407 2956.83 815.219 2969.17 825.414 2978.05C835.775 2986.93 848.437 2991.37 863.402 2991.37Z"/>
<path d="M1250.81 3225.21C1214.8 3225.21 1183.96 3220.2 1158.31 3210.17C1132.65 3200.14 1112.51 3186.4 1097.87 3168.97C1083.24 3151.54 1074.44 3131.81 1071.48 3109.77L1185.69 3103.36C1187.83 3111.09 1191.77 3117.83 1197.53 3123.58C1203.45 3129.34 1211.1 3133.78 1220.47 3136.91C1230.01 3140.03 1241.19 3141.59 1254.02 3141.59C1274.24 3141.59 1290.93 3136.66 1304.09 3126.79C1317.41 3117.09 1324.07 3100.07 1324.07 3075.73V3009.13H1319.88C1315.11 3020.8 1307.87 3031.25 1298.17 3040.46C1288.47 3049.67 1276.38 3056.9 1261.91 3062.16C1247.6 3067.43 1231.16 3070.06 1212.58 3070.06C1184.95 3070.06 1159.62 3063.64 1136.6 3050.82C1113.74 3037.83 1095.41 3017.76 1081.59 2990.63C1067.94 2963.33 1061.12 2928.22 1061.12 2885.3C1061.12 2841.06 1068.19 2804.64 1082.33 2776.02C1096.48 2747.25 1114.98 2725.95 1137.83 2712.14C1160.86 2698.32 1185.61 2691.42 1212.08 2691.42C1231.98 2691.42 1249 2694.87 1263.14 2701.78C1277.45 2708.52 1289.21 2717.23 1298.42 2727.92C1307.63 2738.61 1314.61 2749.71 1319.38 2761.22H1322.84V2696.35H1442.97V3076.72C1442.97 3108.78 1434.91 3135.84 1418.79 3157.87C1402.68 3179.91 1380.15 3196.6 1351.2 3207.95C1322.26 3219.46 1288.8 3225.21 1250.81 3225.21ZM1254.51 2982.24C1269.15 2982.24 1281.64 2978.38 1292 2970.65C1302.36 2962.92 1310.34 2951.82 1315.93 2937.35C1321.52 2922.88 1324.32 2905.53 1324.32 2885.3C1324.32 2864.74 1321.52 2847.07 1315.93 2832.27C1310.5 2817.3 1302.53 2805.79 1292 2797.73C1281.64 2789.67 1269.15 2785.64 1254.51 2785.64C1239.54 2785.64 1226.88 2789.76 1216.52 2797.98C1206.16 2806.2 1198.27 2817.79 1192.84 2832.76C1187.58 2847.56 1184.95 2865.07 1184.95 2885.3C1184.95 2905.53 1187.66 2922.88 1193.09 2937.35C1198.51 2951.82 1206.33 2962.92 1216.52 2970.65C1226.88 2978.38 1239.54 2982.24 1254.51 2982.24Z"/>
<path d="M1478.19 3075.24V2696.35H1598.81V3075.24H1478.19ZM1538.62 2652.2C1521.68 2652.2 1507.13 2646.6 1494.96 2635.42C1482.79 2624.08 1476.71 2610.43 1476.71 2594.47C1476.71 2578.69 1482.79 2565.2 1494.96 2554.02C1507.13 2542.67 1521.68 2537 1538.62 2537C1555.73 2537 1570.28 2542.67 1582.28 2554.02C1594.45 2565.2 1600.54 2578.69 1600.54 2594.47C1600.54 2610.43 1594.45 2624.08 1582.28 2635.42C1570.28 2646.6 1555.73 2652.2 1538.62 2652.2Z"/>
<path d="M1742.69 2975.83L1743.19 2832.02H1759.96L1866.52 2696.35H2003.18L1844.81 2890.73H1812.99L1742.69 2975.83ZM1633.91 3075.24V2570.05H1754.53V3075.24H1633.91ZM1869.23 3075.24L1770.07 2917.86L1849.5 2832.27L2008.6 3075.24H1869.23Z"/>
<path d="M2111.48 3081.65C2087.3 3081.65 2065.84 3077.62 2047.09 3069.56C2028.51 3061.34 2013.79 3049.01 2002.94 3032.56C1992.25 3015.95 1986.91 2995.15 1986.91 2970.16C1986.91 2949.11 1990.61 2931.35 1998.01 2916.87C2005.41 2902.4 2015.6 2890.64 2028.59 2881.6C2041.59 2872.56 2056.55 2865.73 2073.49 2861.13C2090.43 2856.36 2108.52 2853.15 2127.76 2851.51C2149.3 2849.53 2166.65 2847.48 2179.8 2845.34C2192.96 2843.04 2202.5 2839.83 2208.42 2835.72C2214.5 2831.44 2217.54 2825.44 2217.54 2817.71V2816.48C2217.54 2803.82 2213.19 2794.03 2204.47 2787.12C2195.76 2780.22 2184 2776.76 2169.2 2776.76C2153.25 2776.76 2140.42 2780.22 2130.72 2787.12C2121.01 2794.03 2114.85 2803.57 2112.22 2815.74L2000.97 2811.79C2004.26 2788.77 2012.72 2768.21 2026.37 2750.12C2040.19 2731.87 2059.1 2717.56 2083.11 2707.2C2107.28 2696.68 2136.31 2691.42 2170.18 2691.42C2194.36 2691.42 2216.64 2694.29 2237.03 2700.05C2257.42 2705.64 2275.18 2713.86 2290.31 2724.72C2305.44 2735.41 2317.12 2748.56 2325.34 2764.18C2333.73 2779.81 2337.92 2797.65 2337.92 2817.71V3075.24H2224.45V3022.45H2221.49C2214.75 3035.28 2206.12 3046.13 2195.59 3055.01C2185.23 3063.89 2172.98 3070.55 2158.84 3074.99C2144.86 3079.43 2129.07 3081.65 2111.48 3081.65ZM2148.72 3002.72C2161.71 3002.72 2173.39 3000.08 2183.75 2994.82C2194.28 2989.56 2202.66 2982.32 2208.91 2973.12C2215.16 2963.74 2218.28 2952.89 2218.28 2940.55V2904.54C2214.83 2906.35 2210.64 2907.99 2205.7 2909.47C2200.94 2910.95 2195.67 2912.35 2189.92 2913.67C2184.16 2914.98 2178.24 2916.13 2172.16 2917.12C2166.07 2918.11 2160.23 2919.01 2154.64 2919.83C2143.3 2921.64 2133.59 2924.44 2125.54 2928.22C2117.64 2932 2111.56 2936.94 2107.28 2943.02C2103.17 2948.94 2101.12 2956.01 2101.12 2964.23C2101.12 2976.73 2105.56 2986.27 2114.44 2992.85C2123.48 2999.43 2134.91 3002.72 2148.72 3002.72Z"/>
<path d="M2373.13 2570.05H2524.34L2652.61 2882.83H2658.53L2786.8 2570.05H2938.01V3075.24H2819.12V2764.92H2814.92L2693.56 3072.03H2617.59L2496.22 2763.2H2492.03V3075.24H2373.13V2570.05Z"/>
<path d="M3149.36 3082.39C3109.56 3082.39 3075.36 3074.25 3046.74 3057.97C3018.29 3041.53 2996.34 3018.67 2980.88 2989.4C2965.59 2959.96 2957.94 2925.84 2957.94 2887.03C2957.94 2848.05 2965.59 2813.93 2980.88 2784.66C2996.34 2755.22 3018.29 2732.36 3046.74 2716.08C3075.36 2699.64 3109.56 2691.42 3149.36 2691.42C3189.15 2691.42 3223.28 2699.64 3251.73 2716.08C3280.34 2732.36 3302.29 2755.22 3317.59 2784.66C3333.05 2813.93 3340.77 2848.05 3340.77 2887.03C3340.77 2925.84 3333.05 2959.96 3317.59 2989.4C3302.29 3018.67 3280.34 3041.53 3251.73 3057.97C3223.28 3074.25 3189.15 3082.39 3149.36 3082.39ZM3150.1 2991.37C3164.57 2991.37 3176.82 2986.93 3186.85 2978.05C3196.88 2969.17 3204.53 2956.83 3209.79 2941.05C3215.22 2925.26 3217.93 2907.01 3217.93 2886.29C3217.93 2865.24 3215.22 2846.82 3209.79 2831.03C3204.53 2815.25 3196.88 2802.91 3186.85 2794.03C3176.82 2785.15 3164.57 2780.71 3150.1 2780.71C3135.13 2780.71 3122.47 2785.15 3112.11 2794.03C3101.91 2802.91 3094.1 2815.25 3088.68 2831.03C3083.41 2846.82 3080.78 2865.24 3080.78 2886.29C3080.78 2907.01 3083.41 2925.26 3088.68 2941.05C3094.1 2956.83 3101.91 2969.17 3112.11 2978.05C3122.47 2986.93 3135.13 2991.37 3150.1 2991.37Z"/>
<path d="M3360.89 3075.24V2570.05H3481.51V2761.22H3483.98C3488.91 2749.71 3495.9 2738.61 3504.94 2727.92C3514.15 2717.23 3525.83 2708.52 3539.97 2701.78C3554.28 2694.87 3571.38 2691.42 3591.28 2691.42C3617.59 2691.42 3642.18 2698.32 3665.03 2712.14C3688.06 2725.95 3706.64 2747.25 3720.78 2776.02C3734.92 2804.8 3742 2841.47 3742 2886.04C3742 2928.96 3735.17 2964.89 3721.52 2993.84C3708.04 3022.78 3689.78 3044.49 3666.76 3058.96C3643.9 3073.43 3618.5 3080.66 3590.54 3080.66C3571.46 3080.66 3554.94 3077.54 3540.96 3071.29C3526.98 3065.04 3515.22 3056.82 3505.68 3046.62C3496.31 3036.43 3489.07 3025.49 3483.98 3013.82H3480.28V3075.24H3360.89ZM3479.04 2885.79C3479.04 2906.18 3481.76 2923.95 3487.18 2939.07C3492.77 2954.2 3500.75 2965.96 3511.11 2974.35C3521.64 2982.57 3534.22 2986.68 3548.85 2986.68C3563.65 2986.68 3576.23 2982.57 3586.59 2974.35C3596.95 2965.96 3604.76 2954.2 3610.03 2939.07C3615.45 2923.95 3618.17 2906.18 3618.17 2885.79C3618.17 2865.4 3615.45 2847.72 3610.03 2832.76C3604.76 2817.79 3596.95 2806.2 3586.59 2797.98C3576.4 2789.76 3563.82 2785.64 3548.85 2785.64C3534.05 2785.64 3521.47 2789.67 3511.11 2797.73C3500.75 2805.79 3492.77 2817.3 3487.18 2832.27C3481.76 2847.23 3479.04 2865.07 3479.04 2885.79Z"/>
<path d="M3763.53 3075.24V2696.35H3884.15V3075.24H3763.53ZM3823.96 2652.2C3807.02 2652.2 3792.47 2646.6 3780.3 2635.42C3768.13 2624.08 3762.05 2610.43 3762.05 2594.47C3762.05 2578.69 3768.13 2565.2 3780.3 2554.02C3792.47 2542.67 3807.02 2537 3823.96 2537C3841.06 2537 3855.62 2542.67 3867.62 2554.02C3879.79 2565.2 3885.88 2578.69 3885.88 2594.47C3885.88 2610.43 3879.79 2624.08 3867.62 2635.42C3855.62 2646.6 3841.06 2652.2 3823.96 2652.2Z"/>
<path d="M4039.87 2570.05V3075.24H3919.25V2570.05H4039.87Z"/>
<path d="M4252.08 3082.39C4212.45 3082.39 4178.24 3074.58 4149.46 3058.96C4120.85 3043.17 4098.81 3020.72 4083.36 2991.62C4068.06 2962.34 4060.42 2927.56 4060.42 2887.27C4060.42 2848.13 4068.15 2813.93 4083.6 2784.66C4099.06 2755.22 4120.85 2732.36 4148.97 2716.08C4177.09 2699.64 4210.23 2691.42 4248.38 2691.42C4275.35 2691.42 4300.02 2695.61 4322.38 2704C4344.75 2712.38 4364.07 2724.8 4380.35 2741.24C4396.63 2757.69 4409.29 2778 4418.34 2802.17C4427.38 2826.18 4431.9 2853.73 4431.9 2884.81V2914.9H4102.6V2844.85H4319.67C4319.5 2832.02 4316.46 2820.59 4310.54 2810.56C4304.62 2800.53 4296.48 2792.72 4286.12 2787.12C4275.92 2781.37 4264.17 2778.49 4250.85 2778.49C4237.36 2778.49 4225.27 2781.53 4214.59 2787.62C4203.9 2793.54 4195.43 2801.68 4189.18 2812.04C4182.93 2822.23 4179.64 2833.83 4179.31 2846.82V2918.11C4179.31 2933.57 4182.35 2947.13 4188.44 2958.81C4194.52 2970.32 4203.16 2979.28 4214.34 2985.7C4225.52 2992.11 4238.84 2995.32 4254.3 2995.32C4264.99 2995.32 4274.69 2993.84 4283.41 2990.88C4292.12 2987.92 4299.61 2983.56 4305.85 2977.8C4312.1 2972.05 4316.79 2964.98 4319.91 2956.59L4430.67 2959.79C4426.07 2984.63 4415.95 3006.25 4400.33 3024.67C4384.87 3042.92 4364.56 3057.15 4339.4 3067.34C4314.24 3077.38 4285.13 3082.39 4252.08 3082.39Z"/>
<path d="M4564.85 3082.85C4546.54 3082.85 4530.86 3076.41 4517.81 3063.53C4504.93 3050.64 4498.57 3035.05 4498.74 3016.74C4498.57 2998.77 4504.93 2983.43 4517.81 2970.72C4530.86 2957.84 4546.54 2951.4 4564.85 2951.4C4582.14 2951.4 4597.39 2957.84 4610.61 2970.72C4624 2983.43 4630.78 2998.77 4630.95 3016.74C4630.78 3028.95 4627.56 3040.05 4621.29 3050.05C4615.19 3060.05 4607.14 3068.02 4597.14 3073.95C4587.31 3079.88 4576.54 3082.85 4564.85 3082.85Z"/>
</mask>
<path d="M332 3075.24V2570.05H454.102V2976.08H664.266V3075.24H332Z" fill="black"/>
<path d="M862.662 3082.39C822.866 3082.39 788.66 3074.25 760.047 3057.97C731.597 3041.53 709.643 3018.67 694.185 2989.4C678.892 2959.96 671.245 2925.84 671.245 2887.03C671.245 2848.05 678.892 2813.93 694.185 2784.66C709.643 2755.22 731.597 2732.36 760.047 2716.08C788.66 2699.64 822.866 2691.42 862.662 2691.42C902.458 2691.42 936.581 2699.64 965.031 2716.08C993.644 2732.36 1015.6 2755.22 1030.89 2784.66C1046.35 2813.93 1054.08 2848.05 1054.08 2887.03C1054.08 2925.84 1046.35 2959.96 1030.89 2989.4C1015.6 3018.67 993.644 3041.53 965.031 3057.97C936.581 3074.25 902.458 3082.39 862.662 3082.39ZM863.402 2991.37C877.873 2991.37 890.125 2986.93 900.156 2978.05C910.187 2969.17 917.834 2956.83 923.096 2941.05C928.523 2925.26 931.237 2907.01 931.237 2886.29C931.237 2865.24 928.523 2846.82 923.096 2831.03C917.834 2815.25 910.187 2802.91 900.156 2794.03C890.125 2785.15 877.873 2780.71 863.402 2780.71C848.437 2780.71 835.775 2785.15 825.414 2794.03C815.219 2802.91 807.407 2815.25 801.981 2831.03C796.718 2846.82 794.087 2865.24 794.087 2886.29C794.087 2907.01 796.718 2925.26 801.981 2941.05C807.407 2956.83 815.219 2969.17 825.414 2978.05C835.775 2986.93 848.437 2991.37 863.402 2991.37Z" fill="black"/>
<path d="M1250.81 3225.21C1214.8 3225.21 1183.96 3220.2 1158.31 3210.17C1132.65 3200.14 1112.51 3186.4 1097.87 3168.97C1083.24 3151.54 1074.44 3131.81 1071.48 3109.77L1185.69 3103.36C1187.83 3111.09 1191.77 3117.83 1197.53 3123.58C1203.45 3129.34 1211.1 3133.78 1220.47 3136.91C1230.01 3140.03 1241.19 3141.59 1254.02 3141.59C1274.24 3141.59 1290.93 3136.66 1304.09 3126.79C1317.41 3117.09 1324.07 3100.07 1324.07 3075.73V3009.13H1319.88C1315.11 3020.8 1307.87 3031.25 1298.17 3040.46C1288.47 3049.67 1276.38 3056.9 1261.91 3062.16C1247.6 3067.43 1231.16 3070.06 1212.58 3070.06C1184.95 3070.06 1159.62 3063.64 1136.6 3050.82C1113.74 3037.83 1095.41 3017.76 1081.59 2990.63C1067.94 2963.33 1061.12 2928.22 1061.12 2885.3C1061.12 2841.06 1068.19 2804.64 1082.33 2776.02C1096.48 2747.25 1114.98 2725.95 1137.83 2712.14C1160.86 2698.32 1185.61 2691.42 1212.08 2691.42C1231.98 2691.42 1249 2694.87 1263.14 2701.78C1277.45 2708.52 1289.21 2717.23 1298.42 2727.92C1307.63 2738.61 1314.61 2749.71 1319.38 2761.22H1322.84V2696.35H1442.97V3076.72C1442.97 3108.78 1434.91 3135.84 1418.79 3157.87C1402.68 3179.91 1380.15 3196.6 1351.2 3207.95C1322.26 3219.46 1288.8 3225.21 1250.81 3225.21ZM1254.51 2982.24C1269.15 2982.24 1281.64 2978.38 1292 2970.65C1302.36 2962.92 1310.34 2951.82 1315.93 2937.35C1321.52 2922.88 1324.32 2905.53 1324.32 2885.3C1324.32 2864.74 1321.52 2847.07 1315.93 2832.27C1310.5 2817.3 1302.53 2805.79 1292 2797.73C1281.64 2789.67 1269.15 2785.64 1254.51 2785.64C1239.54 2785.64 1226.88 2789.76 1216.52 2797.98C1206.16 2806.2 1198.27 2817.79 1192.84 2832.76C1187.58 2847.56 1184.95 2865.07 1184.95 2885.3C1184.95 2905.53 1187.66 2922.88 1193.09 2937.35C1198.51 2951.82 1206.33 2962.92 1216.52 2970.65C1226.88 2978.38 1239.54 2982.24 1254.51 2982.24Z" fill="black"/>
<path d="M1478.19 3075.24V2696.35H1598.81V3075.24H1478.19ZM1538.62 2652.2C1521.68 2652.2 1507.13 2646.6 1494.96 2635.42C1482.79 2624.08 1476.71 2610.43 1476.71 2594.47C1476.71 2578.69 1482.79 2565.2 1494.96 2554.02C1507.13 2542.67 1521.68 2537 1538.62 2537C1555.73 2537 1570.28 2542.67 1582.28 2554.02C1594.45 2565.2 1600.54 2578.69 1600.54 2594.47C1600.54 2610.43 1594.45 2624.08 1582.28 2635.42C1570.28 2646.6 1555.73 2652.2 1538.62 2652.2Z" fill="black"/>
<path d="M1742.69 2975.83L1743.19 2832.02H1759.96L1866.52 2696.35H2003.18L1844.81 2890.73H1812.99L1742.69 2975.83ZM1633.91 3075.24V2570.05H1754.53V3075.24H1633.91ZM1869.23 3075.24L1770.07 2917.86L1849.5 2832.27L2008.6 3075.24H1869.23Z" fill="black"/>
<path d="M2111.48 3081.65C2087.3 3081.65 2065.84 3077.62 2047.09 3069.56C2028.51 3061.34 2013.79 3049.01 2002.94 3032.56C1992.25 3015.95 1986.91 2995.15 1986.91 2970.16C1986.91 2949.11 1990.61 2931.35 1998.01 2916.87C2005.41 2902.4 2015.6 2890.64 2028.59 2881.6C2041.59 2872.56 2056.55 2865.73 2073.49 2861.13C2090.43 2856.36 2108.52 2853.15 2127.76 2851.51C2149.3 2849.53 2166.65 2847.48 2179.8 2845.34C2192.96 2843.04 2202.5 2839.83 2208.42 2835.72C2214.5 2831.44 2217.54 2825.44 2217.54 2817.71V2816.48C2217.54 2803.82 2213.19 2794.03 2204.47 2787.12C2195.76 2780.22 2184 2776.76 2169.2 2776.76C2153.25 2776.76 2140.42 2780.22 2130.72 2787.12C2121.01 2794.03 2114.85 2803.57 2112.22 2815.74L2000.97 2811.79C2004.26 2788.77 2012.72 2768.21 2026.37 2750.12C2040.19 2731.87 2059.1 2717.56 2083.11 2707.2C2107.28 2696.68 2136.31 2691.42 2170.18 2691.42C2194.36 2691.42 2216.64 2694.29 2237.03 2700.05C2257.42 2705.64 2275.18 2713.86 2290.31 2724.72C2305.44 2735.41 2317.12 2748.56 2325.34 2764.18C2333.73 2779.81 2337.92 2797.65 2337.92 2817.71V3075.24H2224.45V3022.45H2221.49C2214.75 3035.28 2206.12 3046.13 2195.59 3055.01C2185.23 3063.89 2172.98 3070.55 2158.84 3074.99C2144.86 3079.43 2129.07 3081.65 2111.48 3081.65ZM2148.72 3002.72C2161.71 3002.72 2173.39 3000.08 2183.75 2994.82C2194.28 2989.56 2202.66 2982.32 2208.91 2973.12C2215.16 2963.74 2218.28 2952.89 2218.28 2940.55V2904.54C2214.83 2906.35 2210.64 2907.99 2205.7 2909.47C2200.94 2910.95 2195.67 2912.35 2189.92 2913.67C2184.16 2914.98 2178.24 2916.13 2172.16 2917.12C2166.07 2918.11 2160.23 2919.01 2154.64 2919.83C2143.3 2921.64 2133.59 2924.44 2125.54 2928.22C2117.64 2932 2111.56 2936.94 2107.28 2943.02C2103.17 2948.94 2101.12 2956.01 2101.12 2964.23C2101.12 2976.73 2105.56 2986.27 2114.44 2992.85C2123.48 2999.43 2134.91 3002.72 2148.72 3002.72Z" fill="black"/>
<path d="M2373.13 2570.05H2524.34L2652.61 2882.83H2658.53L2786.8 2570.05H2938.01V3075.24H2819.12V2764.92H2814.92L2693.56 3072.03H2617.59L2496.22 2763.2H2492.03V3075.24H2373.13V2570.05Z" fill="black"/>
<path d="M3149.36 3082.39C3109.56 3082.39 3075.36 3074.25 3046.74 3057.97C3018.29 3041.53 2996.34 3018.67 2980.88 2989.4C2965.59 2959.96 2957.94 2925.84 2957.94 2887.03C2957.94 2848.05 2965.59 2813.93 2980.88 2784.66C2996.34 2755.22 3018.29 2732.36 3046.74 2716.08C3075.36 2699.64 3109.56 2691.42 3149.36 2691.42C3189.15 2691.42 3223.28 2699.64 3251.73 2716.08C3280.34 2732.36 3302.29 2755.22 3317.59 2784.66C3333.05 2813.93 3340.77 2848.05 3340.77 2887.03C3340.77 2925.84 3333.05 2959.96 3317.59 2989.4C3302.29 3018.67 3280.34 3041.53 3251.73 3057.97C3223.28 3074.25 3189.15 3082.39 3149.36 3082.39ZM3150.1 2991.37C3164.57 2991.37 3176.82 2986.93 3186.85 2978.05C3196.88 2969.17 3204.53 2956.83 3209.79 2941.05C3215.22 2925.26 3217.93 2907.01 3217.93 2886.29C3217.93 2865.24 3215.22 2846.82 3209.79 2831.03C3204.53 2815.25 3196.88 2802.91 3186.85 2794.03C3176.82 2785.15 3164.57 2780.71 3150.1 2780.71C3135.13 2780.71 3122.47 2785.15 3112.11 2794.03C3101.91 2802.91 3094.1 2815.25 3088.68 2831.03C3083.41 2846.82 3080.78 2865.24 3080.78 2886.29C3080.78 2907.01 3083.41 2925.26 3088.68 2941.05C3094.1 2956.83 3101.91 2969.17 3112.11 2978.05C3122.47 2986.93 3135.13 2991.37 3150.1 2991.37Z" fill="black"/>
<path d="M3360.89 3075.24V2570.05H3481.51V2761.22H3483.98C3488.91 2749.71 3495.9 2738.61 3504.94 2727.92C3514.15 2717.23 3525.83 2708.52 3539.97 2701.78C3554.28 2694.87 3571.38 2691.42 3591.28 2691.42C3617.59 2691.42 3642.18 2698.32 3665.03 2712.14C3688.06 2725.95 3706.64 2747.25 3720.78 2776.02C3734.92 2804.8 3742 2841.47 3742 2886.04C3742 2928.96 3735.17 2964.89 3721.52 2993.84C3708.04 3022.78 3689.78 3044.49 3666.76 3058.96C3643.9 3073.43 3618.5 3080.66 3590.54 3080.66C3571.46 3080.66 3554.94 3077.54 3540.96 3071.29C3526.98 3065.04 3515.22 3056.82 3505.68 3046.62C3496.31 3036.43 3489.07 3025.49 3483.98 3013.82H3480.28V3075.24H3360.89ZM3479.04 2885.79C3479.04 2906.18 3481.76 2923.95 3487.18 2939.07C3492.77 2954.2 3500.75 2965.96 3511.11 2974.35C3521.64 2982.57 3534.22 2986.68 3548.85 2986.68C3563.65 2986.68 3576.23 2982.57 3586.59 2974.35C3596.95 2965.96 3604.76 2954.2 3610.03 2939.07C3615.45 2923.95 3618.17 2906.18 3618.17 2885.79C3618.17 2865.4 3615.45 2847.72 3610.03 2832.76C3604.76 2817.79 3596.95 2806.2 3586.59 2797.98C3576.4 2789.76 3563.82 2785.64 3548.85 2785.64C3534.05 2785.64 3521.47 2789.67 3511.11 2797.73C3500.75 2805.79 3492.77 2817.3 3487.18 2832.27C3481.76 2847.23 3479.04 2865.07 3479.04 2885.79Z" fill="black"/>
<path d="M3763.53 3075.24V2696.35H3884.15V3075.24H3763.53ZM3823.96 2652.2C3807.02 2652.2 3792.47 2646.6 3780.3 2635.42C3768.13 2624.08 3762.05 2610.43 3762.05 2594.47C3762.05 2578.69 3768.13 2565.2 3780.3 2554.02C3792.47 2542.67 3807.02 2537 3823.96 2537C3841.06 2537 3855.62 2542.67 3867.62 2554.02C3879.79 2565.2 3885.88 2578.69 3885.88 2594.47C3885.88 2610.43 3879.79 2624.08 3867.62 2635.42C3855.62 2646.6 3841.06 2652.2 3823.96 2652.2Z" fill="black"/>
<path d="M4039.87 2570.05V3075.24H3919.25V2570.05H4039.87Z" fill="black"/>
<path d="M4252.08 3082.39C4212.45 3082.39 4178.24 3074.58 4149.46 3058.96C4120.85 3043.17 4098.81 3020.72 4083.36 2991.62C4068.06 2962.34 4060.42 2927.56 4060.42 2887.27C4060.42 2848.13 4068.15 2813.93 4083.6 2784.66C4099.06 2755.22 4120.85 2732.36 4148.97 2716.08C4177.09 2699.64 4210.23 2691.42 4248.38 2691.42C4275.35 2691.42 4300.02 2695.61 4322.38 2704C4344.75 2712.38 4364.07 2724.8 4380.35 2741.24C4396.63 2757.69 4409.29 2778 4418.34 2802.17C4427.38 2826.18 4431.9 2853.73 4431.9 2884.81V2914.9H4102.6V2844.85H4319.67C4319.5 2832.02 4316.46 2820.59 4310.54 2810.56C4304.62 2800.53 4296.48 2792.72 4286.12 2787.12C4275.92 2781.37 4264.17 2778.49 4250.85 2778.49C4237.36 2778.49 4225.27 2781.53 4214.59 2787.62C4203.9 2793.54 4195.43 2801.68 4189.18 2812.04C4182.93 2822.23 4179.64 2833.83 4179.31 2846.82V2918.11C4179.31 2933.57 4182.35 2947.13 4188.44 2958.81C4194.52 2970.32 4203.16 2979.28 4214.34 2985.7C4225.52 2992.11 4238.84 2995.32 4254.3 2995.32C4264.99 2995.32 4274.69 2993.84 4283.41 2990.88C4292.12 2987.92 4299.61 2983.56 4305.85 2977.8C4312.1 2972.05 4316.79 2964.98 4319.91 2956.59L4430.67 2959.79C4426.07 2984.63 4415.95 3006.25 4400.33 3024.67C4384.87 3042.92 4364.56 3057.15 4339.4 3067.34C4314.24 3077.38 4285.13 3082.39 4252.08 3082.39Z" fill="black"/>
<path d="M4564.85 3082.85C4546.54 3082.85 4530.86 3076.41 4517.81 3063.53C4504.93 3050.64 4498.57 3035.05 4498.74 3016.74C4498.57 2998.77 4504.93 2983.43 4517.81 2970.72C4530.86 2957.84 4546.54 2951.4 4564.85 2951.4C4582.14 2951.4 4597.39 2957.84 4610.61 2970.72C4624 2983.43 4630.78 2998.77 4630.95 3016.74C4630.78 3028.95 4627.56 3040.05 4621.29 3050.05C4615.19 3060.05 4607.14 3068.02 4597.14 3073.95C4587.31 3079.88 4576.54 3082.85 4564.85 3082.85Z" fill="black"/>
<path d="M332 3075.24V2570.05H454.102V2976.08H664.266V3075.24H332Z" stroke="url(#paint1_linear_397_2)" stroke-width="20" mask="url(#path-3-outside-1_397_2)"/>
<path d="M862.662 3082.39C822.866 3082.39 788.66 3074.25 760.047 3057.97C731.597 3041.53 709.643 3018.67 694.185 2989.4C678.892 2959.96 671.245 2925.84 671.245 2887.03C671.245 2848.05 678.892 2813.93 694.185 2784.66C709.643 2755.22 731.597 2732.36 760.047 2716.08C788.66 2699.64 822.866 2691.42 862.662 2691.42C902.458 2691.42 936.581 2699.64 965.031 2716.08C993.644 2732.36 1015.6 2755.22 1030.89 2784.66C1046.35 2813.93 1054.08 2848.05 1054.08 2887.03C1054.08 2925.84 1046.35 2959.96 1030.89 2989.4C1015.6 3018.67 993.644 3041.53 965.031 3057.97C936.581 3074.25 902.458 3082.39 862.662 3082.39ZM863.402 2991.37C877.873 2991.37 890.125 2986.93 900.156 2978.05C910.187 2969.17 917.834 2956.83 923.096 2941.05C928.523 2925.26 931.237 2907.01 931.237 2886.29C931.237 2865.24 928.523 2846.82 923.096 2831.03C917.834 2815.25 910.187 2802.91 900.156 2794.03C890.125 2785.15 877.873 2780.71 863.402 2780.71C848.437 2780.71 835.775 2785.15 825.414 2794.03C815.219 2802.91 807.407 2815.25 801.981 2831.03C796.718 2846.82 794.087 2865.24 794.087 2886.29C794.087 2907.01 796.718 2925.26 801.981 2941.05C807.407 2956.83 815.219 2969.17 825.414 2978.05C835.775 2986.93 848.437 2991.37 863.402 2991.37Z" stroke="url(#paint2_linear_397_2)" stroke-width="20" mask="url(#path-3-outside-1_397_2)"/>
<path d="M1250.81 3225.21C1214.8 3225.21 1183.96 3220.2 1158.31 3210.17C1132.65 3200.14 1112.51 3186.4 1097.87 3168.97C1083.24 3151.54 1074.44 3131.81 1071.48 3109.77L1185.69 3103.36C1187.83 3111.09 1191.77 3117.83 1197.53 3123.58C1203.45 3129.34 1211.1 3133.78 1220.47 3136.91C1230.01 3140.03 1241.19 3141.59 1254.02 3141.59C1274.24 3141.59 1290.93 3136.66 1304.09 3126.79C1317.41 3117.09 1324.07 3100.07 1324.07 3075.73V3009.13H1319.88C1315.11 3020.8 1307.87 3031.25 1298.17 3040.46C1288.47 3049.67 1276.38 3056.9 1261.91 3062.16C1247.6 3067.43 1231.16 3070.06 1212.58 3070.06C1184.95 3070.06 1159.62 3063.64 1136.6 3050.82C1113.74 3037.83 1095.41 3017.76 1081.59 2990.63C1067.94 2963.33 1061.12 2928.22 1061.12 2885.3C1061.12 2841.06 1068.19 2804.64 1082.33 2776.02C1096.48 2747.25 1114.98 2725.95 1137.83 2712.14C1160.86 2698.32 1185.61 2691.42 1212.08 2691.42C1231.98 2691.42 1249 2694.87 1263.14 2701.78C1277.45 2708.52 1289.21 2717.23 1298.42 2727.92C1307.63 2738.61 1314.61 2749.71 1319.38 2761.22H1322.84V2696.35H1442.97V3076.72C1442.97 3108.78 1434.91 3135.84 1418.79 3157.87C1402.68 3179.91 1380.15 3196.6 1351.2 3207.95C1322.26 3219.46 1288.8 3225.21 1250.81 3225.21ZM1254.51 2982.24C1269.15 2982.24 1281.64 2978.38 1292 2970.65C1302.36 2962.92 1310.34 2951.82 1315.93 2937.35C1321.52 2922.88 1324.32 2905.53 1324.32 2885.3C1324.32 2864.74 1321.52 2847.07 1315.93 2832.27C1310.5 2817.3 1302.53 2805.79 1292 2797.73C1281.64 2789.67 1269.15 2785.64 1254.51 2785.64C1239.54 2785.64 1226.88 2789.76 1216.52 2797.98C1206.16 2806.2 1198.27 2817.79 1192.84 2832.76C1187.58 2847.56 1184.95 2865.07 1184.95 2885.3C1184.95 2905.53 1187.66 2922.88 1193.09 2937.35C1198.51 2951.82 1206.33 2962.92 1216.52 2970.65C1226.88 2978.38 1239.54 2982.24 1254.51 2982.24Z" stroke="url(#paint3_linear_397_2)" stroke-width="20" mask="url(#path-3-outside-1_397_2)"/>
<path d="M1478.19 3075.24V2696.35H1598.81V3075.24H1478.19ZM1538.62 2652.2C1521.68 2652.2 1507.13 2646.6 1494.96 2635.42C1482.79 2624.08 1476.71 2610.43 1476.71 2594.47C1476.71 2578.69 1482.79 2565.2 1494.96 2554.02C1507.13 2542.67 1521.68 2537 1538.62 2537C1555.73 2537 1570.28 2542.67 1582.28 2554.02C1594.45 2565.2 1600.54 2578.69 1600.54 2594.47C1600.54 2610.43 1594.45 2624.08 1582.28 2635.42C1570.28 2646.6 1555.73 2652.2 1538.62 2652.2Z" stroke="url(#paint4_linear_397_2)" stroke-width="20" mask="url(#path-3-outside-1_397_2)"/>
<path d="M1742.69 2975.83L1743.19 2832.02H1759.96L1866.52 2696.35H2003.18L1844.81 2890.73H1812.99L1742.69 2975.83ZM1633.91 3075.24V2570.05H1754.53V3075.24H1633.91ZM1869.23 3075.24L1770.07 2917.86L1849.5 2832.27L2008.6 3075.24H1869.23Z" stroke="url(#paint5_linear_397_2)" stroke-width="20" mask="url(#path-3-outside-1_397_2)"/>
<path d="M2111.48 3081.65C2087.3 3081.65 2065.84 3077.62 2047.09 3069.56C2028.51 3061.34 2013.79 3049.01 2002.94 3032.56C1992.25 3015.95 1986.91 2995.15 1986.91 2970.16C1986.91 2949.11 1990.61 2931.35 1998.01 2916.87C2005.41 2902.4 2015.6 2890.64 2028.59 2881.6C2041.59 2872.56 2056.55 2865.73 2073.49 2861.13C2090.43 2856.36 2108.52 2853.15 2127.76 2851.51C2149.3 2849.53 2166.65 2847.48 2179.8 2845.34C2192.96 2843.04 2202.5 2839.83 2208.42 2835.72C2214.5 2831.44 2217.54 2825.44 2217.54 2817.71V2816.48C2217.54 2803.82 2213.19 2794.03 2204.47 2787.12C2195.76 2780.22 2184 2776.76 2169.2 2776.76C2153.25 2776.76 2140.42 2780.22 2130.72 2787.12C2121.01 2794.03 2114.85 2803.57 2112.22 2815.74L2000.97 2811.79C2004.26 2788.77 2012.72 2768.21 2026.37 2750.12C2040.19 2731.87 2059.1 2717.56 2083.11 2707.2C2107.28 2696.68 2136.31 2691.42 2170.18 2691.42C2194.36 2691.42 2216.64 2694.29 2237.03 2700.05C2257.42 2705.64 2275.18 2713.86 2290.31 2724.72C2305.44 2735.41 2317.12 2748.56 2325.34 2764.18C2333.73 2779.81 2337.92 2797.65 2337.92 2817.71V3075.24H2224.45V3022.45H2221.49C2214.75 3035.28 2206.12 3046.13 2195.59 3055.01C2185.23 3063.89 2172.98 3070.55 2158.84 3074.99C2144.86 3079.43 2129.07 3081.65 2111.48 3081.65ZM2148.72 3002.72C2161.71 3002.72 2173.39 3000.08 2183.75 2994.82C2194.28 2989.56 2202.66 2982.32 2208.91 2973.12C2215.16 2963.74 2218.28 2952.89 2218.28 2940.55V2904.54C2214.83 2906.35 2210.64 2907.99 2205.7 2909.47C2200.94 2910.95 2195.67 2912.35 2189.92 2913.67C2184.16 2914.98 2178.24 2916.13 2172.16 2917.12C2166.07 2918.11 2160.23 2919.01 2154.64 2919.83C2143.3 2921.64 2133.59 2924.44 2125.54 2928.22C2117.64 2932 2111.56 2936.94 2107.28 2943.02C2103.17 2948.94 2101.12 2956.01 2101.12 2964.23C2101.12 2976.73 2105.56 2986.27 2114.44 2992.85C2123.48 2999.43 2134.91 3002.72 2148.72 3002.72Z" stroke="url(#paint6_linear_397_2)" stroke-width="20" mask="url(#path-3-outside-1_397_2)"/>
<path d="M2373.13 2570.05H2524.34L2652.61 2882.83H2658.53L2786.8 2570.05H2938.01V3075.24H2819.12V2764.92H2814.92L2693.56 3072.03H2617.59L2496.22 2763.2H2492.03V3075.24H2373.13V2570.05Z" stroke="url(#paint7_linear_397_2)" stroke-width="20" mask="url(#path-3-outside-1_397_2)"/>
<path d="M3149.36 3082.39C3109.56 3082.39 3075.36 3074.25 3046.74 3057.97C3018.29 3041.53 2996.34 3018.67 2980.88 2989.4C2965.59 2959.96 2957.94 2925.84 2957.94 2887.03C2957.94 2848.05 2965.59 2813.93 2980.88 2784.66C2996.34 2755.22 3018.29 2732.36 3046.74 2716.08C3075.36 2699.64 3109.56 2691.42 3149.36 2691.42C3189.15 2691.42 3223.28 2699.64 3251.73 2716.08C3280.34 2732.36 3302.29 2755.22 3317.59 2784.66C3333.05 2813.93 3340.77 2848.05 3340.77 2887.03C3340.77 2925.84 3333.05 2959.96 3317.59 2989.4C3302.29 3018.67 3280.34 3041.53 3251.73 3057.97C3223.28 3074.25 3189.15 3082.39 3149.36 3082.39ZM3150.1 2991.37C3164.57 2991.37 3176.82 2986.93 3186.85 2978.05C3196.88 2969.17 3204.53 2956.83 3209.79 2941.05C3215.22 2925.26 3217.93 2907.01 3217.93 2886.29C3217.93 2865.24 3215.22 2846.82 3209.79 2831.03C3204.53 2815.25 3196.88 2802.91 3186.85 2794.03C3176.82 2785.15 3164.57 2780.71 3150.1 2780.71C3135.13 2780.71 3122.47 2785.15 3112.11 2794.03C3101.91 2802.91 3094.1 2815.25 3088.68 2831.03C3083.41 2846.82 3080.78 2865.24 3080.78 2886.29C3080.78 2907.01 3083.41 2925.26 3088.68 2941.05C3094.1 2956.83 3101.91 2969.17 3112.11 2978.05C3122.47 2986.93 3135.13 2991.37 3150.1 2991.37Z" stroke="url(#paint8_linear_397_2)" stroke-width="20" mask="url(#path-3-outside-1_397_2)"/>
<path d="M3360.89 3075.24V2570.05H3481.51V2761.22H3483.98C3488.91 2749.71 3495.9 2738.61 3504.94 2727.92C3514.15 2717.23 3525.83 2708.52 3539.97 2701.78C3554.28 2694.87 3571.38 2691.42 3591.28 2691.42C3617.59 2691.42 3642.18 2698.32 3665.03 2712.14C3688.06 2725.95 3706.64 2747.25 3720.78 2776.02C3734.92 2804.8 3742 2841.47 3742 2886.04C3742 2928.96 3735.17 2964.89 3721.52 2993.84C3708.04 3022.78 3689.78 3044.49 3666.76 3058.96C3643.9 3073.43 3618.5 3080.66 3590.54 3080.66C3571.46 3080.66 3554.94 3077.54 3540.96 3071.29C3526.98 3065.04 3515.22 3056.82 3505.68 3046.62C3496.31 3036.43 3489.07 3025.49 3483.98 3013.82H3480.28V3075.24H3360.89ZM3479.04 2885.79C3479.04 2906.18 3481.76 2923.95 3487.18 2939.07C3492.77 2954.2 3500.75 2965.96 3511.11 2974.35C3521.64 2982.57 3534.22 2986.68 3548.85 2986.68C3563.65 2986.68 3576.23 2982.57 3586.59 2974.35C3596.95 2965.96 3604.76 2954.2 3610.03 2939.07C3615.45 2923.95 3618.17 2906.18 3618.17 2885.79C3618.17 2865.4 3615.45 2847.72 3610.03 2832.76C3604.76 2817.79 3596.95 2806.2 3586.59 2797.98C3576.4 2789.76 3563.82 2785.64 3548.85 2785.64C3534.05 2785.64 3521.47 2789.67 3511.11 2797.73C3500.75 2805.79 3492.77 2817.3 3487.18 2832.27C3481.76 2847.23 3479.04 2865.07 3479.04 2885.79Z" stroke="url(#paint9_linear_397_2)" stroke-width="20" mask="url(#path-3-outside-1_397_2)"/>
<path d="M3763.53 3075.24V2696.35H3884.15V3075.24H3763.53ZM3823.96 2652.2C3807.02 2652.2 3792.47 2646.6 3780.3 2635.42C3768.13 2624.08 3762.05 2610.43 3762.05 2594.47C3762.05 2578.69 3768.13 2565.2 3780.3 2554.02C3792.47 2542.67 3807.02 2537 3823.96 2537C3841.06 2537 3855.62 2542.67 3867.62 2554.02C3879.79 2565.2 3885.88 2578.69 3885.88 2594.47C3885.88 2610.43 3879.79 2624.08 3867.62 2635.42C3855.62 2646.6 3841.06 2652.2 3823.96 2652.2Z" stroke="url(#paint10_linear_397_2)" stroke-width="20" mask="url(#path-3-outside-1_397_2)"/>
<path d="M4039.87 2570.05V3075.24H3919.25V2570.05H4039.87Z" stroke="url(#paint11_linear_397_2)" stroke-width="20" mask="url(#path-3-outside-1_397_2)"/>
<path d="M4252.08 3082.39C4212.45 3082.39 4178.24 3074.58 4149.46 3058.96C4120.85 3043.17 4098.81 3020.72 4083.36 2991.62C4068.06 2962.34 4060.42 2927.56 4060.42 2887.27C4060.42 2848.13 4068.15 2813.93 4083.6 2784.66C4099.06 2755.22 4120.85 2732.36 4148.97 2716.08C4177.09 2699.64 4210.23 2691.42 4248.38 2691.42C4275.35 2691.42 4300.02 2695.61 4322.38 2704C4344.75 2712.38 4364.07 2724.8 4380.35 2741.24C4396.63 2757.69 4409.29 2778 4418.34 2802.17C4427.38 2826.18 4431.9 2853.73 4431.9 2884.81V2914.9H4102.6V2844.85H4319.67C4319.5 2832.02 4316.46 2820.59 4310.54 2810.56C4304.62 2800.53 4296.48 2792.72 4286.12 2787.12C4275.92 2781.37 4264.17 2778.49 4250.85 2778.49C4237.36 2778.49 4225.27 2781.53 4214.59 2787.62C4203.9 2793.54 4195.43 2801.68 4189.18 2812.04C4182.93 2822.23 4179.64 2833.83 4179.31 2846.82V2918.11C4179.31 2933.57 4182.35 2947.13 4188.44 2958.81C4194.52 2970.32 4203.16 2979.28 4214.34 2985.7C4225.52 2992.11 4238.84 2995.32 4254.3 2995.32C4264.99 2995.32 4274.69 2993.84 4283.41 2990.88C4292.12 2987.92 4299.61 2983.56 4305.85 2977.8C4312.1 2972.05 4316.79 2964.98 4319.91 2956.59L4430.67 2959.79C4426.07 2984.63 4415.95 3006.25 4400.33 3024.67C4384.87 3042.92 4364.56 3057.15 4339.4 3067.34C4314.24 3077.38 4285.13 3082.39 4252.08 3082.39Z" stroke="url(#paint12_linear_397_2)" stroke-width="20" mask="url(#path-3-outside-1_397_2)"/>
<path d="M4564.85 3082.85C4546.54 3082.85 4530.86 3076.41 4517.81 3063.53C4504.93 3050.64 4498.57 3035.05 4498.74 3016.74C4498.57 2998.77 4504.93 2983.43 4517.81 2970.72C4530.86 2957.84 4546.54 2951.4 4564.85 2951.4C4582.14 2951.4 4597.39 2957.84 4610.61 2970.72C4624 2983.43 4630.78 2998.77 4630.95 3016.74C4630.78 3028.95 4627.56 3040.05 4621.29 3050.05C4615.19 3060.05 4607.14 3068.02 4597.14 3073.95C4587.31 3079.88 4576.54 3082.85 4564.85 3082.85Z" stroke="url(#paint13_linear_397_2)" stroke-width="20" mask="url(#path-3-outside-1_397_2)"/>
<mask id="path-4-outside-2_397_2" maskUnits="userSpaceOnUse" x="895.281" y="3383.88" width="3147" height="350" fill="black">
<rect fill="white" x="895.281" y="3383.88" width="3147" height="350"/>
<path d="M905.281 3718.63V3413.82H1032.38C1055.2 3413.82 1074.3 3417.05 1089.68 3423.5C1105.16 3429.95 1116.77 3438.98 1124.51 3450.58C1132.35 3462.19 1136.26 3475.64 1136.26 3490.92C1136.26 3502.53 1133.83 3512.89 1128.97 3522.02C1124.11 3531.05 1117.41 3538.54 1108.88 3544.5C1100.35 3550.45 1090.48 3554.62 1079.26 3557V3559.97C1091.57 3560.57 1102.93 3563.89 1113.35 3569.95C1123.86 3576 1132.3 3584.43 1138.65 3595.25C1145 3605.96 1148.17 3618.66 1148.17 3633.35C1148.17 3649.72 1144 3664.35 1135.67 3677.25C1127.34 3690.05 1115.28 3700.17 1099.5 3707.61C1083.73 3714.96 1064.58 3718.63 1042.06 3718.63H905.281ZM978.952 3659.24H1024.49C1040.47 3659.24 1052.23 3656.22 1059.77 3650.17C1067.41 3644.11 1071.23 3635.68 1071.23 3624.86C1071.23 3617.03 1069.39 3610.28 1065.72 3604.62C1062.05 3598.87 1056.84 3594.45 1050.09 3591.38C1043.35 3588.2 1035.26 3586.61 1025.83 3586.61H978.952V3659.24ZM978.952 3539.14H1019.73C1027.77 3539.14 1034.91 3537.8 1041.16 3535.12C1047.41 3532.44 1052.28 3528.57 1055.75 3523.51C1059.32 3518.45 1061.11 3512.35 1061.11 3505.21C1061.11 3494.99 1057.48 3486.95 1050.24 3481.09C1043 3475.24 1033.23 3472.31 1020.92 3472.31H978.952V3539.14Z"/>
<path d="M1305.94 3619.95V3490.02H1378.57V3718.63H1309.21V3676.06H1306.83C1301.77 3690.05 1293.14 3701.16 1280.93 3709.4C1268.83 3717.54 1254.19 3721.6 1237.03 3721.6C1221.45 3721.6 1207.76 3718.03 1195.95 3710.89C1184.14 3703.74 1174.97 3693.77 1168.42 3680.97C1161.87 3668.07 1158.55 3652.99 1158.45 3635.73V3490.02H1231.22V3621.44C1231.32 3633.84 1234.6 3643.62 1241.05 3650.76C1247.5 3657.9 1256.28 3661.48 1267.39 3661.48C1274.63 3661.48 1281.13 3659.89 1286.89 3656.71C1292.74 3653.44 1297.35 3648.73 1300.73 3642.57C1304.2 3636.32 1305.94 3628.78 1305.94 3619.95Z"/>
<path d="M1599.32 3559.83L1532.5 3561.61C1531.8 3556.85 1529.92 3552.63 1526.84 3548.96C1523.77 3545.19 1519.75 3542.26 1514.79 3540.18C1509.93 3538 1504.27 3536.91 1497.82 3536.91C1489.39 3536.91 1482.19 3538.59 1476.24 3541.97C1470.39 3545.34 1467.51 3549.9 1467.61 3555.66C1467.51 3560.12 1469.3 3563.99 1472.97 3567.27C1476.74 3570.54 1483.43 3573.17 1493.06 3575.15L1537.11 3583.49C1559.93 3587.86 1576.9 3595.1 1588.01 3605.22C1599.22 3615.34 1604.88 3628.73 1604.98 3645.4C1604.88 3661.08 1600.22 3674.72 1590.99 3686.33C1581.86 3697.94 1569.36 3706.97 1553.48 3713.42C1537.61 3719.77 1519.45 3722.94 1499.01 3722.94C1466.37 3722.94 1440.62 3716.25 1421.77 3702.85C1403.02 3689.36 1392.3 3671.3 1389.62 3648.68L1461.51 3646.89C1463.09 3655.23 1467.21 3661.58 1473.86 3665.94C1480.51 3670.31 1488.99 3672.49 1499.31 3672.49C1508.64 3672.49 1516.23 3670.75 1522.08 3667.28C1527.93 3663.81 1530.91 3659.19 1531.01 3653.44C1530.91 3648.28 1528.63 3644.16 1524.16 3641.09C1519.7 3637.91 1512.7 3635.43 1503.18 3633.65L1463.29 3626.05C1440.37 3621.89 1423.31 3614.2 1412.1 3602.99C1400.88 3591.68 1395.33 3577.29 1395.43 3559.83C1395.33 3544.55 1399.4 3531.5 1407.63 3520.68C1415.87 3509.77 1427.57 3501.43 1442.75 3495.68C1457.94 3489.93 1475.84 3487.05 1496.48 3487.05C1527.44 3487.05 1551.85 3493.55 1569.71 3506.54C1587.57 3519.44 1597.44 3537.2 1599.32 3559.83Z"/>
<path d="M1615.66 3718.63V3490.02H1688.44V3718.63H1615.66ZM1652.13 3463.38C1641.91 3463.38 1633.13 3460.01 1625.78 3453.26C1618.44 3446.42 1614.77 3438.18 1614.77 3428.56C1614.77 3419.03 1618.44 3410.9 1625.78 3404.15C1633.13 3397.3 1641.91 3393.88 1652.13 3393.88C1662.45 3393.88 1671.23 3397.3 1678.47 3404.15C1685.81 3410.9 1689.48 3419.03 1689.48 3428.56C1689.48 3438.18 1685.81 3446.42 1678.47 3453.26C1671.23 3460.01 1662.45 3463.38 1652.13 3463.38Z"/>
<path d="M1782.4 3588.25V3718.63H1709.62V3490.02H1778.82V3531.99H1781.35C1786.41 3518 1795.05 3507.04 1807.25 3499.1C1819.45 3491.07 1833.99 3487.05 1850.86 3487.05C1866.93 3487.05 1880.87 3490.67 1892.68 3497.91C1904.59 3505.06 1913.81 3515.08 1920.36 3527.98C1927.01 3540.78 1930.28 3555.76 1930.18 3572.92V3718.63H1857.41V3587.21C1857.51 3574.51 1854.28 3564.59 1847.73 3557.44C1841.28 3550.3 1832.3 3546.73 1820.79 3546.73C1813.15 3546.73 1806.41 3548.42 1800.55 3551.79C1794.8 3555.06 1790.33 3559.78 1787.16 3565.93C1784.08 3572.08 1782.5 3579.52 1782.4 3588.25Z"/>
<path d="M2056.96 3722.94C2033.04 3722.94 2012.41 3718.23 1995.04 3708.8C1977.78 3699.28 1964.48 3685.74 1955.16 3668.17C1945.93 3650.51 1941.31 3629.53 1941.31 3605.22C1941.31 3581.6 1945.98 3560.97 1955.3 3543.31C1964.63 3525.55 1977.78 3511.75 1994.74 3501.93C2011.71 3492.01 2031.7 3487.05 2054.72 3487.05C2071 3487.05 2085.88 3489.58 2099.37 3494.64C2112.87 3499.7 2124.52 3507.19 2134.35 3517.11C2144.17 3527.03 2151.81 3539.29 2157.27 3553.87C2162.72 3568.36 2165.45 3584.98 2165.45 3603.73V3621.89H1966.76V3579.62H2097.73C2097.64 3571.88 2095.8 3564.98 2092.23 3558.93C2088.66 3552.88 2083.74 3548.17 2077.49 3544.79C2071.34 3541.32 2064.25 3539.58 2056.21 3539.58C2048.08 3539.58 2040.78 3541.42 2034.33 3545.09C2027.88 3548.66 2022.77 3553.57 2019 3559.83C2015.23 3565.98 2013.25 3572.97 2013.05 3580.81V3623.82C2013.05 3633.15 2014.89 3641.33 2018.56 3648.38C2022.23 3655.32 2027.44 3660.73 2034.18 3664.6C2040.93 3668.47 2048.97 3670.41 2058.29 3670.41C2064.74 3670.41 2070.6 3669.51 2075.86 3667.73C2081.12 3665.94 2085.63 3663.31 2089.4 3659.84C2093.17 3656.37 2096 3652.1 2097.88 3647.04L2164.71 3648.97C2161.93 3663.96 2155.83 3677 2146.4 3688.12C2137.08 3699.13 2124.82 3707.71 2109.64 3713.86C2094.46 3719.92 2076.9 3722.94 2056.96 3722.94Z"/>
<path d="M2377.06 3559.83L2310.23 3561.61C2309.54 3556.85 2307.65 3552.63 2304.58 3548.96C2301.5 3545.19 2297.48 3542.26 2292.52 3540.18C2287.66 3538 2282 3536.91 2275.56 3536.91C2267.12 3536.91 2259.93 3538.59 2253.97 3541.97C2248.12 3545.34 2245.24 3549.9 2245.34 3555.66C2245.24 3560.12 2247.03 3563.99 2250.7 3567.27C2254.47 3570.54 2261.17 3573.17 2270.79 3575.15L2314.85 3583.49C2337.67 3587.86 2354.63 3595.1 2365.75 3605.22C2376.96 3615.34 2382.61 3628.73 2382.71 3645.4C2382.61 3661.08 2377.95 3674.72 2368.72 3686.33C2359.59 3697.94 2347.09 3706.97 2331.22 3713.42C2315.34 3719.77 2297.19 3722.94 2276.75 3722.94C2244.1 3722.94 2218.35 3716.25 2199.5 3702.85C2180.75 3689.36 2170.03 3671.3 2167.36 3648.68L2239.24 3646.89C2240.83 3655.23 2244.95 3661.58 2251.59 3665.94C2258.24 3670.31 2266.72 3672.49 2277.04 3672.49C2286.37 3672.49 2293.96 3670.75 2299.81 3667.28C2305.67 3663.81 2308.64 3659.19 2308.74 3653.44C2308.64 3648.28 2306.36 3644.16 2301.9 3641.09C2297.43 3637.91 2290.44 3635.43 2280.91 3633.65L2241.03 3626.05C2218.11 3621.89 2201.04 3614.2 2189.83 3602.99C2178.62 3591.68 2173.06 3577.29 2173.16 3559.83C2173.06 3544.55 2177.13 3531.5 2185.36 3520.68C2193.6 3509.77 2205.31 3501.43 2220.49 3495.68C2235.67 3489.93 2253.58 3487.05 2274.22 3487.05C2305.17 3487.05 2329.58 3493.55 2347.44 3506.54C2365.3 3519.44 2375.17 3537.2 2377.06 3559.83Z"/>
<path d="M2592.98 3559.83L2526.15 3561.61C2525.46 3556.85 2523.57 3552.63 2520.5 3548.96C2517.42 3545.19 2513.4 3542.26 2508.44 3540.18C2503.58 3538 2497.93 3536.91 2491.48 3536.91C2483.04 3536.91 2475.85 3538.59 2469.9 3541.97C2464.04 3545.34 2461.16 3549.9 2461.26 3555.66C2461.16 3560.12 2462.95 3563.99 2466.62 3567.27C2470.39 3570.54 2477.09 3573.17 2486.71 3575.15L2530.77 3583.49C2553.59 3587.86 2570.55 3595.1 2581.67 3605.22C2592.88 3615.34 2598.53 3628.73 2598.63 3645.4C2598.53 3661.08 2593.87 3674.72 2584.64 3686.33C2575.51 3697.94 2563.01 3706.97 2547.14 3713.42C2531.26 3719.77 2513.11 3722.94 2492.67 3722.94C2460.02 3722.94 2434.28 3716.25 2415.42 3702.85C2396.67 3689.36 2385.96 3671.3 2383.28 3648.68L2455.16 3646.89C2456.75 3655.23 2460.87 3661.58 2467.51 3665.94C2474.16 3670.31 2482.65 3672.49 2492.96 3672.49C2502.29 3672.49 2509.88 3670.75 2515.73 3667.28C2521.59 3663.81 2524.57 3659.19 2524.66 3653.44C2524.57 3648.28 2522.28 3644.16 2517.82 3641.09C2513.35 3637.91 2506.36 3635.43 2496.83 3633.65L2456.95 3626.05C2434.03 3621.89 2416.96 3614.2 2405.75 3602.99C2394.54 3591.68 2388.98 3577.29 2389.08 3559.83C2388.98 3544.55 2393.05 3531.5 2401.28 3520.68C2409.52 3509.77 2421.23 3501.43 2436.41 3495.68C2451.59 3489.93 2469.5 3487.05 2490.14 3487.05C2521.09 3487.05 2545.5 3493.55 2563.36 3506.54C2581.22 3519.44 2591.09 3537.2 2592.98 3559.83Z"/>
<path d="M2916.4 3524.26H2841.99C2841 3516.62 2838.96 3509.72 2835.89 3503.57C2832.81 3497.42 2828.74 3492.16 2823.68 3487.79C2818.62 3483.43 2812.62 3480.1 2805.67 3477.82C2798.83 3475.44 2791.24 3474.25 2782.9 3474.25C2768.12 3474.25 2755.37 3477.87 2744.65 3485.11C2734.04 3492.36 2725.85 3502.82 2720.1 3516.52C2714.44 3530.21 2711.61 3546.78 2711.61 3566.23C2711.61 3586.47 2714.49 3603.43 2720.24 3617.12C2726.1 3630.72 2734.28 3640.99 2744.8 3647.93C2755.42 3654.78 2767.97 3658.2 2782.46 3658.2C2790.59 3658.2 2797.98 3657.16 2804.63 3655.08C2811.38 3652.99 2817.28 3649.97 2822.34 3646C2827.5 3641.93 2831.72 3637.02 2834.99 3631.26C2838.37 3625.41 2840.7 3618.81 2841.99 3611.47L2916.4 3611.92C2915.11 3625.41 2911.19 3638.71 2904.64 3651.8C2898.2 3664.9 2889.32 3676.86 2878 3687.67C2866.69 3698.39 2852.9 3706.92 2836.63 3713.27C2820.46 3719.62 2801.9 3722.79 2780.97 3722.79C2753.38 3722.79 2728.68 3716.74 2706.85 3704.64C2685.12 3692.43 2667.96 3674.67 2655.35 3651.36C2642.75 3628.04 2636.45 3599.66 2636.45 3566.23C2636.45 3532.69 2642.85 3504.26 2655.65 3480.95C2668.45 3457.63 2685.77 3439.92 2707.59 3427.81C2729.42 3415.71 2753.88 3409.66 2780.97 3409.66C2799.42 3409.66 2816.49 3412.24 2832.16 3417.4C2847.84 3422.46 2861.63 3429.9 2873.54 3439.72C2885.45 3449.44 2895.12 3461.4 2902.56 3475.59C2910 3489.78 2914.62 3506 2916.4 3524.26Z"/>
<path d="M3040.27 3722.94C3016.36 3722.94 2995.72 3718.23 2978.36 3708.8C2961.09 3699.28 2947.8 3685.74 2938.47 3668.17C2929.24 3650.51 2924.63 3629.53 2924.63 3605.22C2924.63 3581.6 2929.29 3560.97 2938.62 3543.31C2947.95 3525.55 2961.09 3511.75 2978.06 3501.93C2995.03 3492.01 3015.02 3487.05 3038.04 3487.05C3054.31 3487.05 3069.19 3489.58 3082.69 3494.64C3096.18 3499.7 3107.84 3507.19 3117.66 3517.11C3127.49 3527.03 3135.13 3539.29 3140.58 3553.87C3146.04 3568.36 3148.77 3584.98 3148.77 3603.73V3621.89H2950.08V3579.62H3081.05C3080.95 3571.88 3079.12 3564.98 3075.54 3558.93C3071.97 3552.88 3067.06 3548.17 3060.81 3544.79C3054.66 3541.32 3047.56 3539.58 3039.53 3539.58C3031.39 3539.58 3024.1 3541.42 3017.65 3545.09C3011.2 3548.66 3006.09 3553.57 3002.32 3559.83C2998.55 3565.98 2996.57 3572.97 2996.37 3580.81V3623.82C2996.37 3633.15 2998.2 3641.33 3001.87 3648.38C3005.54 3655.32 3010.75 3660.73 3017.5 3664.6C3024.25 3668.47 3032.28 3670.41 3041.61 3670.41C3048.06 3670.41 3053.91 3669.51 3059.17 3667.73C3064.43 3665.94 3068.95 3663.31 3072.72 3659.84C3076.49 3656.37 3079.31 3652.1 3081.2 3647.04L3148.02 3648.97C3145.25 3663.96 3139.14 3677 3129.72 3688.12C3120.39 3699.13 3108.14 3707.71 3092.96 3713.86C3077.78 3719.92 3060.21 3722.94 3040.27 3722.94Z"/>
<path d="M3233.57 3588.25V3718.63H3160.79V3490.02H3230V3531.99H3232.53C3237.59 3518 3246.22 3507.04 3258.42 3499.1C3270.63 3491.07 3285.16 3487.05 3302.03 3487.05C3318.11 3487.05 3332.05 3490.67 3343.85 3497.91C3355.76 3505.06 3364.99 3515.08 3371.54 3527.98C3378.18 3540.78 3381.46 3555.76 3381.36 3572.92V3718.63H3308.58V3587.21C3308.68 3574.51 3305.46 3564.59 3298.91 3557.44C3292.46 3550.3 3283.48 3546.73 3271.97 3546.73C3264.33 3546.73 3257.58 3548.42 3251.73 3551.79C3245.97 3555.06 3241.51 3559.78 3238.33 3565.93C3235.26 3572.08 3233.67 3579.52 3233.57 3588.25Z"/>
<path d="M3530.31 3490.02V3543.6H3386.09V3490.02H3530.31ZM3416.3 3435.26H3489.08V3646.74C3489.08 3651.21 3489.77 3654.83 3491.16 3657.61C3492.65 3660.29 3494.78 3662.22 3497.56 3663.41C3500.34 3664.5 3503.67 3665.05 3507.53 3665.05C3510.31 3665.05 3513.24 3664.8 3516.32 3664.3C3519.49 3663.71 3521.87 3663.21 3523.46 3662.82L3534.47 3715.35C3531 3716.34 3526.09 3717.59 3519.74 3719.07C3513.49 3720.56 3506 3721.5 3497.27 3721.9C3480.2 3722.69 3465.56 3720.71 3453.36 3715.95C3441.26 3711.09 3431.98 3703.55 3425.53 3693.33C3419.18 3683.11 3416.1 3670.26 3416.3 3654.78V3435.26Z"/>
<path d="M3646.7 3722.94C3622.78 3722.94 3602.15 3718.23 3584.78 3708.8C3567.52 3699.28 3554.22 3685.74 3544.9 3668.17C3535.67 3650.51 3531.06 3629.53 3531.06 3605.22C3531.06 3581.6 3535.72 3560.97 3545.05 3543.31C3554.37 3525.55 3567.52 3511.75 3584.49 3501.93C3601.45 3492.01 3621.44 3487.05 3644.46 3487.05C3660.74 3487.05 3675.62 3489.58 3689.11 3494.64C3702.61 3499.7 3714.27 3507.19 3724.09 3517.11C3733.91 3527.03 3741.55 3539.29 3747.01 3553.87C3752.46 3568.36 3755.19 3584.98 3755.19 3603.73V3621.89H3556.51V3579.62H3687.48C3687.38 3571.88 3685.54 3564.98 3681.97 3558.93C3678.4 3552.88 3673.49 3548.17 3667.23 3544.79C3661.08 3541.32 3653.99 3539.58 3645.95 3539.58C3637.82 3539.58 3630.52 3541.42 3624.07 3545.09C3617.62 3548.66 3612.51 3553.57 3608.74 3559.83C3604.97 3565.98 3602.99 3572.97 3602.79 3580.81V3623.82C3602.79 3633.15 3604.63 3641.33 3608.3 3648.38C3611.97 3655.32 3617.18 3660.73 3623.93 3664.6C3630.67 3668.47 3638.71 3670.41 3648.04 3670.41C3654.49 3670.41 3660.34 3669.51 3665.6 3667.73C3670.86 3665.94 3675.37 3663.31 3679.14 3659.84C3682.91 3656.37 3685.74 3652.1 3687.62 3647.04L3754.45 3648.97C3751.67 3663.96 3745.57 3677 3736.14 3688.12C3726.82 3699.13 3714.56 3707.71 3699.38 3713.86C3684.2 3719.92 3666.64 3722.94 3646.7 3722.94Z"/>
<path d="M3767.22 3718.63V3490.02H3837.91V3531.7H3840.29C3844.46 3516.62 3851.26 3505.4 3860.68 3498.06C3870.11 3490.62 3881.07 3486.9 3893.57 3486.9C3896.95 3486.9 3900.42 3487.15 3903.99 3487.64C3907.56 3488.04 3910.89 3488.68 3913.96 3489.58V3552.83C3910.49 3551.64 3905.93 3550.7 3900.27 3550C3894.71 3549.31 3889.75 3548.96 3885.39 3548.96C3876.76 3548.96 3868.97 3550.9 3862.02 3554.77C3855.18 3558.54 3849.77 3563.84 3845.8 3570.69C3841.93 3577.44 3839.99 3585.37 3839.99 3594.5V3718.63H3767.22Z"/>
<path d="M3991.52 3723.18C3980.47 3723.18 3971.01 3719.29 3963.14 3711.52C3955.36 3703.75 3951.53 3694.34 3951.63 3683.29C3951.53 3672.45 3955.36 3663.2 3963.14 3655.53C3971.01 3647.75 3980.47 3643.87 3991.52 3643.87C4001.95 3643.87 4011.15 3647.75 4019.13 3655.53C4027.21 3663.2 4031.3 3672.45 4031.4 3683.29C4031.3 3690.66 4029.36 3697.36 4025.57 3703.39C4021.89 3709.42 4017.04 3714.23 4011 3717.81C4005.07 3721.39 3998.57 3723.18 3991.52 3723.18Z"/>
</mask>
<path d="M905.281 3718.63V3413.82H1032.38C1055.2 3413.82 1074.3 3417.05 1089.68 3423.5C1105.16 3429.95 1116.77 3438.98 1124.51 3450.58C1132.35 3462.19 1136.26 3475.64 1136.26 3490.92C1136.26 3502.53 1133.83 3512.89 1128.97 3522.02C1124.11 3531.05 1117.41 3538.54 1108.88 3544.5C1100.35 3550.45 1090.48 3554.62 1079.26 3557V3559.97C1091.57 3560.57 1102.93 3563.89 1113.35 3569.95C1123.86 3576 1132.3 3584.43 1138.65 3595.25C1145 3605.96 1148.17 3618.66 1148.17 3633.35C1148.17 3649.72 1144 3664.35 1135.67 3677.25C1127.34 3690.05 1115.28 3700.17 1099.5 3707.61C1083.73 3714.96 1064.58 3718.63 1042.06 3718.63H905.281ZM978.952 3659.24H1024.49C1040.47 3659.24 1052.23 3656.22 1059.77 3650.17C1067.41 3644.11 1071.23 3635.68 1071.23 3624.86C1071.23 3617.03 1069.39 3610.28 1065.72 3604.62C1062.05 3598.87 1056.84 3594.45 1050.09 3591.38C1043.35 3588.2 1035.26 3586.61 1025.83 3586.61H978.952V3659.24ZM978.952 3539.14H1019.73C1027.77 3539.14 1034.91 3537.8 1041.16 3535.12C1047.41 3532.44 1052.28 3528.57 1055.75 3523.51C1059.32 3518.45 1061.11 3512.35 1061.11 3505.21C1061.11 3494.99 1057.48 3486.95 1050.24 3481.09C1043 3475.24 1033.23 3472.31 1020.92 3472.31H978.952V3539.14Z" fill="black"/>
<path d="M1305.94 3619.95V3490.02H1378.57V3718.63H1309.21V3676.06H1306.83C1301.77 3690.05 1293.14 3701.16 1280.93 3709.4C1268.83 3717.54 1254.19 3721.6 1237.03 3721.6C1221.45 3721.6 1207.76 3718.03 1195.95 3710.89C1184.14 3703.74 1174.97 3693.77 1168.42 3680.97C1161.87 3668.07 1158.55 3652.99 1158.45 3635.73V3490.02H1231.22V3621.44C1231.32 3633.84 1234.6 3643.62 1241.05 3650.76C1247.5 3657.9 1256.28 3661.48 1267.39 3661.48C1274.63 3661.48 1281.13 3659.89 1286.89 3656.71C1292.74 3653.44 1297.35 3648.73 1300.73 3642.57C1304.2 3636.32 1305.94 3628.78 1305.94 3619.95Z" fill="black"/>
<path d="M1599.32 3559.83L1532.5 3561.61C1531.8 3556.85 1529.92 3552.63 1526.84 3548.96C1523.77 3545.19 1519.75 3542.26 1514.79 3540.18C1509.93 3538 1504.27 3536.91 1497.82 3536.91C1489.39 3536.91 1482.19 3538.59 1476.24 3541.97C1470.39 3545.34 1467.51 3549.9 1467.61 3555.66C1467.51 3560.12 1469.3 3563.99 1472.97 3567.27C1476.74 3570.54 1483.43 3573.17 1493.06 3575.15L1537.11 3583.49C1559.93 3587.86 1576.9 3595.1 1588.01 3605.22C1599.22 3615.34 1604.88 3628.73 1604.98 3645.4C1604.88 3661.08 1600.22 3674.72 1590.99 3686.33C1581.86 3697.94 1569.36 3706.97 1553.48 3713.42C1537.61 3719.77 1519.45 3722.94 1499.01 3722.94C1466.37 3722.94 1440.62 3716.25 1421.77 3702.85C1403.02 3689.36 1392.3 3671.3 1389.62 3648.68L1461.51 3646.89C1463.09 3655.23 1467.21 3661.58 1473.86 3665.94C1480.51 3670.31 1488.99 3672.49 1499.31 3672.49C1508.64 3672.49 1516.23 3670.75 1522.08 3667.28C1527.93 3663.81 1530.91 3659.19 1531.01 3653.44C1530.91 3648.28 1528.63 3644.16 1524.16 3641.09C1519.7 3637.91 1512.7 3635.43 1503.18 3633.65L1463.29 3626.05C1440.37 3621.89 1423.31 3614.2 1412.1 3602.99C1400.88 3591.68 1395.33 3577.29 1395.43 3559.83C1395.33 3544.55 1399.4 3531.5 1407.63 3520.68C1415.87 3509.77 1427.57 3501.43 1442.75 3495.68C1457.94 3489.93 1475.84 3487.05 1496.48 3487.05C1527.44 3487.05 1551.85 3493.55 1569.71 3506.54C1587.57 3519.44 1597.44 3537.2 1599.32 3559.83Z" fill="black"/>
<path d="M1615.66 3718.63V3490.02H1688.44V3718.63H1615.66ZM1652.13 3463.38C1641.91 3463.38 1633.13 3460.01 1625.78 3453.26C1618.44 3446.42 1614.77 3438.18 1614.77 3428.56C1614.77 3419.03 1618.44 3410.9 1625.78 3404.15C1633.13 3397.3 1641.91 3393.88 1652.13 3393.88C1662.45 3393.88 1671.23 3397.3 1678.47 3404.15C1685.81 3410.9 1689.48 3419.03 1689.48 3428.56C1689.48 3438.18 1685.81 3446.42 1678.47 3453.26C1671.23 3460.01 1662.45 3463.38 1652.13 3463.38Z" fill="black"/>
<path d="M1782.4 3588.25V3718.63H1709.62V3490.02H1778.82V3531.99H1781.35C1786.41 3518 1795.05 3507.04 1807.25 3499.1C1819.45 3491.07 1833.99 3487.05 1850.86 3487.05C1866.93 3487.05 1880.87 3490.67 1892.68 3497.91C1904.59 3505.06 1913.81 3515.08 1920.36 3527.98C1927.01 3540.78 1930.28 3555.76 1930.18 3572.92V3718.63H1857.41V3587.21C1857.51 3574.51 1854.28 3564.59 1847.73 3557.44C1841.28 3550.3 1832.3 3546.73 1820.79 3546.73C1813.15 3546.73 1806.41 3548.42 1800.55 3551.79C1794.8 3555.06 1790.33 3559.78 1787.16 3565.93C1784.08 3572.08 1782.5 3579.52 1782.4 3588.25Z" fill="black"/>
<path d="M2056.96 3722.94C2033.04 3722.94 2012.41 3718.23 1995.04 3708.8C1977.78 3699.28 1964.48 3685.74 1955.16 3668.17C1945.93 3650.51 1941.31 3629.53 1941.31 3605.22C1941.31 3581.6 1945.98 3560.97 1955.3 3543.31C1964.63 3525.55 1977.78 3511.75 1994.74 3501.93C2011.71 3492.01 2031.7 3487.05 2054.72 3487.05C2071 3487.05 2085.88 3489.58 2099.37 3494.64C2112.87 3499.7 2124.52 3507.19 2134.35 3517.11C2144.17 3527.03 2151.81 3539.29 2157.27 3553.87C2162.72 3568.36 2165.45 3584.98 2165.45 3603.73V3621.89H1966.76V3579.62H2097.73C2097.64 3571.88 2095.8 3564.98 2092.23 3558.93C2088.66 3552.88 2083.74 3548.17 2077.49 3544.79C2071.34 3541.32 2064.25 3539.58 2056.21 3539.58C2048.08 3539.58 2040.78 3541.42 2034.33 3545.09C2027.88 3548.66 2022.77 3553.57 2019 3559.83C2015.23 3565.98 2013.25 3572.97 2013.05 3580.81V3623.82C2013.05 3633.15 2014.89 3641.33 2018.56 3648.38C2022.23 3655.32 2027.44 3660.73 2034.18 3664.6C2040.93 3668.47 2048.97 3670.41 2058.29 3670.41C2064.74 3670.41 2070.6 3669.51 2075.86 3667.73C2081.12 3665.94 2085.63 3663.31 2089.4 3659.84C2093.17 3656.37 2096 3652.1 2097.88 3647.04L2164.71 3648.97C2161.93 3663.96 2155.83 3677 2146.4 3688.12C2137.08 3699.13 2124.82 3707.71 2109.64 3713.86C2094.46 3719.92 2076.9 3722.94 2056.96 3722.94Z" fill="black"/>
<path d="M2377.06 3559.83L2310.23 3561.61C2309.54 3556.85 2307.65 3552.63 2304.58 3548.96C2301.5 3545.19 2297.48 3542.26 2292.52 3540.18C2287.66 3538 2282 3536.91 2275.56 3536.91C2267.12 3536.91 2259.93 3538.59 2253.97 3541.97C2248.12 3545.34 2245.24 3549.9 2245.34 3555.66C2245.24 3560.12 2247.03 3563.99 2250.7 3567.27C2254.47 3570.54 2261.17 3573.17 2270.79 3575.15L2314.85 3583.49C2337.67 3587.86 2354.63 3595.1 2365.75 3605.22C2376.96 3615.34 2382.61 3628.73 2382.71 3645.4C2382.61 3661.08 2377.95 3674.72 2368.72 3686.33C2359.59 3697.94 2347.09 3706.97 2331.22 3713.42C2315.34 3719.77 2297.19 3722.94 2276.75 3722.94C2244.1 3722.94 2218.35 3716.25 2199.5 3702.85C2180.75 3689.36 2170.03 3671.3 2167.36 3648.68L2239.24 3646.89C2240.83 3655.23 2244.95 3661.58 2251.59 3665.94C2258.24 3670.31 2266.72 3672.49 2277.04 3672.49C2286.37 3672.49 2293.96 3670.75 2299.81 3667.28C2305.67 3663.81 2308.64 3659.19 2308.74 3653.44C2308.64 3648.28 2306.36 3644.16 2301.9 3641.09C2297.43 3637.91 2290.44 3635.43 2280.91 3633.65L2241.03 3626.05C2218.11 3621.89 2201.04 3614.2 2189.83 3602.99C2178.62 3591.68 2173.06 3577.29 2173.16 3559.83C2173.06 3544.55 2177.13 3531.5 2185.36 3520.68C2193.6 3509.77 2205.31 3501.43 2220.49 3495.68C2235.67 3489.93 2253.58 3487.05 2274.22 3487.05C2305.17 3487.05 2329.58 3493.55 2347.44 3506.54C2365.3 3519.44 2375.17 3537.2 2377.06 3559.83Z" fill="black"/>
<path d="M2592.98 3559.83L2526.15 3561.61C2525.46 3556.85 2523.57 3552.63 2520.5 3548.96C2517.42 3545.19 2513.4 3542.26 2508.44 3540.18C2503.58 3538 2497.93 3536.91 2491.48 3536.91C2483.04 3536.91 2475.85 3538.59 2469.9 3541.97C2464.04 3545.34 2461.16 3549.9 2461.26 3555.66C2461.16 3560.12 2462.95 3563.99 2466.62 3567.27C2470.39 3570.54 2477.09 3573.17 2486.71 3575.15L2530.77 3583.49C2553.59 3587.86 2570.55 3595.1 2581.67 3605.22C2592.88 3615.34 2598.53 3628.73 2598.63 3645.4C2598.53 3661.08 2593.87 3674.72 2584.64 3686.33C2575.51 3697.94 2563.01 3706.97 2547.14 3713.42C2531.26 3719.77 2513.11 3722.94 2492.67 3722.94C2460.02 3722.94 2434.28 3716.25 2415.42 3702.85C2396.67 3689.36 2385.96 3671.3 2383.28 3648.68L2455.16 3646.89C2456.75 3655.23 2460.87 3661.58 2467.51 3665.94C2474.16 3670.31 2482.65 3672.49 2492.96 3672.49C2502.29 3672.49 2509.88 3670.75 2515.73 3667.28C2521.59 3663.81 2524.57 3659.19 2524.66 3653.44C2524.57 3648.28 2522.28 3644.16 2517.82 3641.09C2513.35 3637.91 2506.36 3635.43 2496.83 3633.65L2456.95 3626.05C2434.03 3621.89 2416.96 3614.2 2405.75 3602.99C2394.54 3591.68 2388.98 3577.29 2389.08 3559.83C2388.98 3544.55 2393.05 3531.5 2401.28 3520.68C2409.52 3509.77 2421.23 3501.43 2436.41 3495.68C2451.59 3489.93 2469.5 3487.05 2490.14 3487.05C2521.09 3487.05 2545.5 3493.55 2563.36 3506.54C2581.22 3519.44 2591.09 3537.2 2592.98 3559.83Z" fill="black"/>
<path d="M2916.4 3524.26H2841.99C2841 3516.62 2838.96 3509.72 2835.89 3503.57C2832.81 3497.42 2828.74 3492.16 2823.68 3487.79C2818.62 3483.43 2812.62 3480.1 2805.67 3477.82C2798.83 3475.44 2791.24 3474.25 2782.9 3474.25C2768.12 3474.25 2755.37 3477.87 2744.65 3485.11C2734.04 3492.36 2725.85 3502.82 2720.1 3516.52C2714.44 3530.21 2711.61 3546.78 2711.61 3566.23C2711.61 3586.47 2714.49 3603.43 2720.24 3617.12C2726.1 3630.72 2734.28 3640.99 2744.8 3647.93C2755.42 3654.78 2767.97 3658.2 2782.46 3658.2C2790.59 3658.2 2797.98 3657.16 2804.63 3655.08C2811.38 3652.99 2817.28 3649.97 2822.34 3646C2827.5 3641.93 2831.72 3637.02 2834.99 3631.26C2838.37 3625.41 2840.7 3618.81 2841.99 3611.47L2916.4 3611.92C2915.11 3625.41 2911.19 3638.71 2904.64 3651.8C2898.2 3664.9 2889.32 3676.86 2878 3687.67C2866.69 3698.39 2852.9 3706.92 2836.63 3713.27C2820.46 3719.62 2801.9 3722.79 2780.97 3722.79C2753.38 3722.79 2728.68 3716.74 2706.85 3704.64C2685.12 3692.43 2667.96 3674.67 2655.35 3651.36C2642.75 3628.04 2636.45 3599.66 2636.45 3566.23C2636.45 3532.69 2642.85 3504.26 2655.65 3480.95C2668.45 3457.63 2685.77 3439.92 2707.59 3427.81C2729.42 3415.71 2753.88 3409.66 2780.97 3409.66C2799.42 3409.66 2816.49 3412.24 2832.16 3417.4C2847.84 3422.46 2861.63 3429.9 2873.54 3439.72C2885.45 3449.44 2895.12 3461.4 2902.56 3475.59C2910 3489.78 2914.62 3506 2916.4 3524.26Z" fill="black"/>
<path d="M3040.27 3722.94C3016.36 3722.94 2995.72 3718.23 2978.36 3708.8C2961.09 3699.28 2947.8 3685.74 2938.47 3668.17C2929.24 3650.51 2924.63 3629.53 2924.63 3605.22C2924.63 3581.6 2929.29 3560.97 2938.62 3543.31C2947.95 3525.55 2961.09 3511.75 2978.06 3501.93C2995.03 3492.01 3015.02 3487.05 3038.04 3487.05C3054.31 3487.05 3069.19 3489.58 3082.69 3494.64C3096.18 3499.7 3107.84 3507.19 3117.66 3517.11C3127.49 3527.03 3135.13 3539.29 3140.58 3553.87C3146.04 3568.36 3148.77 3584.98 3148.77 3603.73V3621.89H2950.08V3579.62H3081.05C3080.95 3571.88 3079.12 3564.98 3075.54 3558.93C3071.97 3552.88 3067.06 3548.17 3060.81 3544.79C3054.66 3541.32 3047.56 3539.58 3039.53 3539.58C3031.39 3539.58 3024.1 3541.42 3017.65 3545.09C3011.2 3548.66 3006.09 3553.57 3002.32 3559.83C2998.55 3565.98 2996.57 3572.97 2996.37 3580.81V3623.82C2996.37 3633.15 2998.2 3641.33 3001.87 3648.38C3005.54 3655.32 3010.75 3660.73 3017.5 3664.6C3024.25 3668.47 3032.28 3670.41 3041.61 3670.41C3048.06 3670.41 3053.91 3669.51 3059.17 3667.73C3064.43 3665.94 3068.95 3663.31 3072.72 3659.84C3076.49 3656.37 3079.31 3652.1 3081.2 3647.04L3148.02 3648.97C3145.25 3663.96 3139.14 3677 3129.72 3688.12C3120.39 3699.13 3108.14 3707.71 3092.96 3713.86C3077.78 3719.92 3060.21 3722.94 3040.27 3722.94Z" fill="black"/>
<path d="M3233.57 3588.25V3718.63H3160.79V3490.02H3230V3531.99H3232.53C3237.59 3518 3246.22 3507.04 3258.42 3499.1C3270.63 3491.07 3285.16 3487.05 3302.03 3487.05C3318.11 3487.05 3332.05 3490.67 3343.85 3497.91C3355.76 3505.06 3364.99 3515.08 3371.54 3527.98C3378.18 3540.78 3381.46 3555.76 3381.36 3572.92V3718.63H3308.58V3587.21C3308.68 3574.51 3305.46 3564.59 3298.91 3557.44C3292.46 3550.3 3283.48 3546.73 3271.97 3546.73C3264.33 3546.73 3257.58 3548.42 3251.73 3551.79C3245.97 3555.06 3241.51 3559.78 3238.33 3565.93C3235.26 3572.08 3233.67 3579.52 3233.57 3588.25Z" fill="black"/>
<path d="M3530.31 3490.02V3543.6H3386.09V3490.02H3530.31ZM3416.3 3435.26H3489.08V3646.74C3489.08 3651.21 3489.77 3654.83 3491.16 3657.61C3492.65 3660.29 3494.78 3662.22 3497.56 3663.41C3500.34 3664.5 3503.67 3665.05 3507.53 3665.05C3510.31 3665.05 3513.24 3664.8 3516.32 3664.3C3519.49 3663.71 3521.87 3663.21 3523.46 3662.82L3534.47 3715.35C3531 3716.34 3526.09 3717.59 3519.74 3719.07C3513.49 3720.56 3506 3721.5 3497.27 3721.9C3480.2 3722.69 3465.56 3720.71 3453.36 3715.95C3441.26 3711.09 3431.98 3703.55 3425.53 3693.33C3419.18 3683.11 3416.1 3670.26 3416.3 3654.78V3435.26Z" fill="black"/>
<path d="M3646.7 3722.94C3622.78 3722.94 3602.15 3718.23 3584.78 3708.8C3567.52 3699.28 3554.22 3685.74 3544.9 3668.17C3535.67 3650.51 3531.06 3629.53 3531.06 3605.22C3531.06 3581.6 3535.72 3560.97 3545.05 3543.31C3554.37 3525.55 3567.52 3511.75 3584.49 3501.93C3601.45 3492.01 3621.44 3487.05 3644.46 3487.05C3660.74 3487.05 3675.62 3489.58 3689.11 3494.64C3702.61 3499.7 3714.27 3507.19 3724.09 3517.11C3733.91 3527.03 3741.55 3539.29 3747.01 3553.87C3752.46 3568.36 3755.19 3584.98 3755.19 3603.73V3621.89H3556.51V3579.62H3687.48C3687.38 3571.88 3685.54 3564.98 3681.97 3558.93C3678.4 3552.88 3673.49 3548.17 3667.23 3544.79C3661.08 3541.32 3653.99 3539.58 3645.95 3539.58C3637.82 3539.58 3630.52 3541.42 3624.07 3545.09C3617.62 3548.66 3612.51 3553.57 3608.74 3559.83C3604.97 3565.98 3602.99 3572.97 3602.79 3580.81V3623.82C3602.79 3633.15 3604.63 3641.33 3608.3 3648.38C3611.97 3655.32 3617.18 3660.73 3623.93 3664.6C3630.67 3668.47 3638.71 3670.41 3648.04 3670.41C3654.49 3670.41 3660.34 3669.51 3665.6 3667.73C3670.86 3665.94 3675.37 3663.31 3679.14 3659.84C3682.91 3656.37 3685.74 3652.1 3687.62 3647.04L3754.45 3648.97C3751.67 3663.96 3745.57 3677 3736.14 3688.12C3726.82 3699.13 3714.56 3707.71 3699.38 3713.86C3684.2 3719.92 3666.64 3722.94 3646.7 3722.94Z" fill="black"/>
<path d="M3767.22 3718.63V3490.02H3837.91V3531.7H3840.29C3844.46 3516.62 3851.26 3505.4 3860.68 3498.06C3870.11 3490.62 3881.07 3486.9 3893.57 3486.9C3896.95 3486.9 3900.42 3487.15 3903.99 3487.64C3907.56 3488.04 3910.89 3488.68 3913.96 3489.58V3552.83C3910.49 3551.64 3905.93 3550.7 3900.27 3550C3894.71 3549.31 3889.75 3548.96 3885.39 3548.96C3876.76 3548.96 3868.97 3550.9 3862.02 3554.77C3855.18 3558.54 3849.77 3563.84 3845.8 3570.69C3841.93 3577.44 3839.99 3585.37 3839.99 3594.5V3718.63H3767.22Z" fill="black"/>
<path d="M3991.52 3723.18C3980.47 3723.18 3971.01 3719.29 3963.14 3711.52C3955.36 3703.75 3951.53 3694.34 3951.63 3683.29C3951.53 3672.45 3955.36 3663.2 3963.14 3655.53C3971.01 3647.75 3980.47 3643.87 3991.52 3643.87C4001.95 3643.87 4011.15 3647.75 4019.13 3655.53C4027.21 3663.2 4031.3 3672.45 4031.4 3683.29C4031.3 3690.66 4029.36 3697.36 4025.57 3703.39C4021.89 3709.42 4017.04 3714.23 4011 3717.81C4005.07 3721.39 3998.57 3723.18 3991.52 3723.18Z" fill="black"/>
<path d="M905.281 3718.63V3413.82H1032.38C1055.2 3413.82 1074.3 3417.05 1089.68 3423.5C1105.16 3429.95 1116.77 3438.98 1124.51 3450.58C1132.35 3462.19 1136.26 3475.64 1136.26 3490.92C1136.26 3502.53 1133.83 3512.89 1128.97 3522.02C1124.11 3531.05 1117.41 3538.54 1108.88 3544.5C1100.35 3550.45 1090.48 3554.62 1079.26 3557V3559.97C1091.57 3560.57 1102.93 3563.89 1113.35 3569.95C1123.86 3576 1132.3 3584.43 1138.65 3595.25C1145 3605.96 1148.17 3618.66 1148.17 3633.35C1148.17 3649.72 1144 3664.35 1135.67 3677.25C1127.34 3690.05 1115.28 3700.17 1099.5 3707.61C1083.73 3714.96 1064.58 3718.63 1042.06 3718.63H905.281ZM978.952 3659.24H1024.49C1040.47 3659.24 1052.23 3656.22 1059.77 3650.17C1067.41 3644.11 1071.23 3635.68 1071.23 3624.86C1071.23 3617.03 1069.39 3610.28 1065.72 3604.62C1062.05 3598.87 1056.84 3594.45 1050.09 3591.38C1043.35 3588.2 1035.26 3586.61 1025.83 3586.61H978.952V3659.24ZM978.952 3539.14H1019.73C1027.77 3539.14 1034.91 3537.8 1041.16 3535.12C1047.41 3532.44 1052.28 3528.57 1055.75 3523.51C1059.32 3518.45 1061.11 3512.35 1061.11 3505.21C1061.11 3494.99 1057.48 3486.95 1050.24 3481.09C1043 3475.24 1033.23 3472.31 1020.92 3472.31H978.952V3539.14Z" stroke="url(#paint14_linear_397_2)" stroke-width="20" mask="url(#path-4-outside-2_397_2)"/>
<path d="M1305.94 3619.95V3490.02H1378.57V3718.63H1309.21V3676.06H1306.83C1301.77 3690.05 1293.14 3701.16 1280.93 3709.4C1268.83 3717.54 1254.19 3721.6 1237.03 3721.6C1221.45 3721.6 1207.76 3718.03 1195.95 3710.89C1184.14 3703.74 1174.97 3693.77 1168.42 3680.97C1161.87 3668.07 1158.55 3652.99 1158.45 3635.73V3490.02H1231.22V3621.44C1231.32 3633.84 1234.6 3643.62 1241.05 3650.76C1247.5 3657.9 1256.28 3661.48 1267.39 3661.48C1274.63 3661.48 1281.13 3659.89 1286.89 3656.71C1292.74 3653.44 1297.35 3648.73 1300.73 3642.57C1304.2 3636.32 1305.94 3628.78 1305.94 3619.95Z" stroke="url(#paint15_linear_397_2)" stroke-width="20" mask="url(#path-4-outside-2_397_2)"/>
<path d="M1599.32 3559.83L1532.5 3561.61C1531.8 3556.85 1529.92 3552.63 1526.84 3548.96C1523.77 3545.19 1519.75 3542.26 1514.79 3540.18C1509.93 3538 1504.27 3536.91 1497.82 3536.91C1489.39 3536.91 1482.19 3538.59 1476.24 3541.97C1470.39 3545.34 1467.51 3549.9 1467.61 3555.66C1467.51 3560.12 1469.3 3563.99 1472.97 3567.27C1476.74 3570.54 1483.43 3573.17 1493.06 3575.15L1537.11 3583.49C1559.93 3587.86 1576.9 3595.1 1588.01 3605.22C1599.22 3615.34 1604.88 3628.73 1604.98 3645.4C1604.88 3661.08 1600.22 3674.72 1590.99 3686.33C1581.86 3697.94 1569.36 3706.97 1553.48 3713.42C1537.61 3719.77 1519.45 3722.94 1499.01 3722.94C1466.37 3722.94 1440.62 3716.25 1421.77 3702.85C1403.02 3689.36 1392.3 3671.3 1389.62 3648.68L1461.51 3646.89C1463.09 3655.23 1467.21 3661.58 1473.86 3665.94C1480.51 3670.31 1488.99 3672.49 1499.31 3672.49C1508.64 3672.49 1516.23 3670.75 1522.08 3667.28C1527.93 3663.81 1530.91 3659.19 1531.01 3653.44C1530.91 3648.28 1528.63 3644.16 1524.16 3641.09C1519.7 3637.91 1512.7 3635.43 1503.18 3633.65L1463.29 3626.05C1440.37 3621.89 1423.31 3614.2 1412.1 3602.99C1400.88 3591.68 1395.33 3577.29 1395.43 3559.83C1395.33 3544.55 1399.4 3531.5 1407.63 3520.68C1415.87 3509.77 1427.57 3501.43 1442.75 3495.68C1457.94 3489.93 1475.84 3487.05 1496.48 3487.05C1527.44 3487.05 1551.85 3493.55 1569.71 3506.54C1587.57 3519.44 1597.44 3537.2 1599.32 3559.83Z" stroke="url(#paint16_linear_397_2)" stroke-width="20" mask="url(#path-4-outside-2_397_2)"/>
<path d="M1615.66 3718.63V3490.02H1688.44V3718.63H1615.66ZM1652.13 3463.38C1641.91 3463.38 1633.13 3460.01 1625.78 3453.26C1618.44 3446.42 1614.77 3438.18 1614.77 3428.56C1614.77 3419.03 1618.44 3410.9 1625.78 3404.15C1633.13 3397.3 1641.91 3393.88 1652.13 3393.88C1662.45 3393.88 1671.23 3397.3 1678.47 3404.15C1685.81 3410.9 1689.48 3419.03 1689.48 3428.56C1689.48 3438.18 1685.81 3446.42 1678.47 3453.26C1671.23 3460.01 1662.45 3463.38 1652.13 3463.38Z" stroke="url(#paint17_linear_397_2)" stroke-width="20" mask="url(#path-4-outside-2_397_2)"/>
<path d="M1782.4 3588.25V3718.63H1709.62V3490.02H1778.82V3531.99H1781.35C1786.41 3518 1795.05 3507.04 1807.25 3499.1C1819.45 3491.07 1833.99 3487.05 1850.86 3487.05C1866.93 3487.05 1880.87 3490.67 1892.68 3497.91C1904.59 3505.06 1913.81 3515.08 1920.36 3527.98C1927.01 3540.78 1930.28 3555.76 1930.18 3572.92V3718.63H1857.41V3587.21C1857.51 3574.51 1854.28 3564.59 1847.73 3557.44C1841.28 3550.3 1832.3 3546.73 1820.79 3546.73C1813.15 3546.73 1806.41 3548.42 1800.55 3551.79C1794.8 3555.06 1790.33 3559.78 1787.16 3565.93C1784.08 3572.08 1782.5 3579.52 1782.4 3588.25Z" stroke="url(#paint18_linear_397_2)" stroke-width="20" mask="url(#path-4-outside-2_397_2)"/>
<path d="M2056.96 3722.94C2033.04 3722.94 2012.41 3718.23 1995.04 3708.8C1977.78 3699.28 1964.48 3685.74 1955.16 3668.17C1945.93 3650.51 1941.31 3629.53 1941.31 3605.22C1941.31 3581.6 1945.98 3560.97 1955.3 3543.31C1964.63 3525.55 1977.78 3511.75 1994.74 3501.93C2011.71 3492.01 2031.7 3487.05 2054.72 3487.05C2071 3487.05 2085.88 3489.58 2099.37 3494.64C2112.87 3499.7 2124.52 3507.19 2134.35 3517.11C2144.17 3527.03 2151.81 3539.29 2157.27 3553.87C2162.72 3568.36 2165.45 3584.98 2165.45 3603.73V3621.89H1966.76V3579.62H2097.73C2097.64 3571.88 2095.8 3564.98 2092.23 3558.93C2088.66 3552.88 2083.74 3548.17 2077.49 3544.79C2071.34 3541.32 2064.25 3539.58 2056.21 3539.58C2048.08 3539.58 2040.78 3541.42 2034.33 3545.09C2027.88 3548.66 2022.77 3553.57 2019 3559.83C2015.23 3565.98 2013.25 3572.97 2013.05 3580.81V3623.82C2013.05 3633.15 2014.89 3641.33 2018.56 3648.38C2022.23 3655.32 2027.44 3660.73 2034.18 3664.6C2040.93 3668.47 2048.97 3670.41 2058.29 3670.41C2064.74 3670.41 2070.6 3669.51 2075.86 3667.73C2081.12 3665.94 2085.63 3663.31 2089.4 3659.84C2093.17 3656.37 2096 3652.1 2097.88 3647.04L2164.71 3648.97C2161.93 3663.96 2155.83 3677 2146.4 3688.12C2137.08 3699.13 2124.82 3707.71 2109.64 3713.86C2094.46 3719.92 2076.9 3722.94 2056.96 3722.94Z" stroke="url(#paint19_linear_397_2)" stroke-width="20" mask="url(#path-4-outside-2_397_2)"/>
<path d="M2377.06 3559.83L2310.23 3561.61C2309.54 3556.85 2307.65 3552.63 2304.58 3548.96C2301.5 3545.19 2297.48 3542.26 2292.52 3540.18C2287.66 3538 2282 3536.91 2275.56 3536.91C2267.12 3536.91 2259.93 3538.59 2253.97 3541.97C2248.12 3545.34 2245.24 3549.9 2245.34 3555.66C2245.24 3560.12 2247.03 3563.99 2250.7 3567.27C2254.47 3570.54 2261.17 3573.17 2270.79 3575.15L2314.85 3583.49C2337.67 3587.86 2354.63 3595.1 2365.75 3605.22C2376.96 3615.34 2382.61 3628.73 2382.71 3645.4C2382.61 3661.08 2377.95 3674.72 2368.72 3686.33C2359.59 3697.94 2347.09 3706.97 2331.22 3713.42C2315.34 3719.77 2297.19 3722.94 2276.75 3722.94C2244.1 3722.94 2218.35 3716.25 2199.5 3702.85C2180.75 3689.36 2170.03 3671.3 2167.36 3648.68L2239.24 3646.89C2240.83 3655.23 2244.95 3661.58 2251.59 3665.94C2258.24 3670.31 2266.72 3672.49 2277.04 3672.49C2286.37 3672.49 2293.96 3670.75 2299.81 3667.28C2305.67 3663.81 2308.64 3659.19 2308.74 3653.44C2308.64 3648.28 2306.36 3644.16 2301.9 3641.09C2297.43 3637.91 2290.44 3635.43 2280.91 3633.65L2241.03 3626.05C2218.11 3621.89 2201.04 3614.2 2189.83 3602.99C2178.62 3591.68 2173.06 3577.29 2173.16 3559.83C2173.06 3544.55 2177.13 3531.5 2185.36 3520.68C2193.6 3509.77 2205.31 3501.43 2220.49 3495.68C2235.67 3489.93 2253.58 3487.05 2274.22 3487.05C2305.17 3487.05 2329.58 3493.55 2347.44 3506.54C2365.3 3519.44 2375.17 3537.2 2377.06 3559.83Z" stroke="url(#paint20_linear_397_2)" stroke-width="20" mask="url(#path-4-outside-2_397_2)"/>
<path d="M2592.98 3559.83L2526.15 3561.61C2525.46 3556.85 2523.57 3552.63 2520.5 3548.96C2517.42 3545.19 2513.4 3542.26 2508.44 3540.18C2503.58 3538 2497.93 3536.91 2491.48 3536.91C2483.04 3536.91 2475.85 3538.59 2469.9 3541.97C2464.04 3545.34 2461.16 3549.9 2461.26 3555.66C2461.16 3560.12 2462.95 3563.99 2466.62 3567.27C2470.39 3570.54 2477.09 3573.17 2486.71 3575.15L2530.77 3583.49C2553.59 3587.86 2570.55 3595.1 2581.67 3605.22C2592.88 3615.34 2598.53 3628.73 2598.63 3645.4C2598.53 3661.08 2593.87 3674.72 2584.64 3686.33C2575.51 3697.94 2563.01 3706.97 2547.14 3713.42C2531.26 3719.77 2513.11 3722.94 2492.67 3722.94C2460.02 3722.94 2434.28 3716.25 2415.42 3702.85C2396.67 3689.36 2385.96 3671.3 2383.28 3648.68L2455.16 3646.89C2456.75 3655.23 2460.87 3661.58 2467.51 3665.94C2474.16 3670.31 2482.65 3672.49 2492.96 3672.49C2502.29 3672.49 2509.88 3670.75 2515.73 3667.28C2521.59 3663.81 2524.57 3659.19 2524.66 3653.44C2524.57 3648.28 2522.28 3644.16 2517.82 3641.09C2513.35 3637.91 2506.36 3635.43 2496.83 3633.65L2456.95 3626.05C2434.03 3621.89 2416.96 3614.2 2405.75 3602.99C2394.54 3591.68 2388.98 3577.29 2389.08 3559.83C2388.98 3544.55 2393.05 3531.5 2401.28 3520.68C2409.52 3509.77 2421.23 3501.43 2436.41 3495.68C2451.59 3489.93 2469.5 3487.05 2490.14 3487.05C2521.09 3487.05 2545.5 3493.55 2563.36 3506.54C2581.22 3519.44 2591.09 3537.2 2592.98 3559.83Z" stroke="url(#paint21_linear_397_2)" stroke-width="20" mask="url(#path-4-outside-2_397_2)"/>
<path d="M2916.4 3524.26H2841.99C2841 3516.62 2838.96 3509.72 2835.89 3503.57C2832.81 3497.42 2828.74 3492.16 2823.68 3487.79C2818.62 3483.43 2812.62 3480.1 2805.67 3477.82C2798.83 3475.44 2791.24 3474.25 2782.9 3474.25C2768.12 3474.25 2755.37 3477.87 2744.65 3485.11C2734.04 3492.36 2725.85 3502.82 2720.1 3516.52C2714.44 3530.21 2711.61 3546.78 2711.61 3566.23C2711.61 3586.47 2714.49 3603.43 2720.24 3617.12C2726.1 3630.72 2734.28 3640.99 2744.8 3647.93C2755.42 3654.78 2767.97 3658.2 2782.46 3658.2C2790.59 3658.2 2797.98 3657.16 2804.63 3655.08C2811.38 3652.99 2817.28 3649.97 2822.34 3646C2827.5 3641.93 2831.72 3637.02 2834.99 3631.26C2838.37 3625.41 2840.7 3618.81 2841.99 3611.47L2916.4 3611.92C2915.11 3625.41 2911.19 3638.71 2904.64 3651.8C2898.2 3664.9 2889.32 3676.86 2878 3687.67C2866.69 3698.39 2852.9 3706.92 2836.63 3713.27C2820.46 3719.62 2801.9 3722.79 2780.97 3722.79C2753.38 3722.79 2728.68 3716.74 2706.85 3704.64C2685.12 3692.43 2667.96 3674.67 2655.35 3651.36C2642.75 3628.04 2636.45 3599.66 2636.45 3566.23C2636.45 3532.69 2642.85 3504.26 2655.65 3480.95C2668.45 3457.63 2685.77 3439.92 2707.59 3427.81C2729.42 3415.71 2753.88 3409.66 2780.97 3409.66C2799.42 3409.66 2816.49 3412.24 2832.16 3417.4C2847.84 3422.46 2861.63 3429.9 2873.54 3439.72C2885.45 3449.44 2895.12 3461.4 2902.56 3475.59C2910 3489.78 2914.62 3506 2916.4 3524.26Z" stroke="url(#paint22_linear_397_2)" stroke-width="20" mask="url(#path-4-outside-2_397_2)"/>
<path d="M3040.27 3722.94C3016.36 3722.94 2995.72 3718.23 2978.36 3708.8C2961.09 3699.28 2947.8 3685.74 2938.47 3668.17C2929.24 3650.51 2924.63 3629.53 2924.63 3605.22C2924.63 3581.6 2929.29 3560.97 2938.62 3543.31C2947.95 3525.55 2961.09 3511.75 2978.06 3501.93C2995.03 3492.01 3015.02 3487.05 3038.04 3487.05C3054.31 3487.05 3069.19 3489.58 3082.69 3494.64C3096.18 3499.7 3107.84 3507.19 3117.66 3517.11C3127.49 3527.03 3135.13 3539.29 3140.58 3553.87C3146.04 3568.36 3148.77 3584.98 3148.77 3603.73V3621.89H2950.08V3579.62H3081.05C3080.95 3571.88 3079.12 3564.98 3075.54 3558.93C3071.97 3552.88 3067.06 3548.17 3060.81 3544.79C3054.66 3541.32 3047.56 3539.58 3039.53 3539.58C3031.39 3539.58 3024.1 3541.42 3017.65 3545.09C3011.2 3548.66 3006.09 3553.57 3002.32 3559.83C2998.55 3565.98 2996.57 3572.97 2996.37 3580.81V3623.82C2996.37 3633.15 2998.2 3641.33 3001.87 3648.38C3005.54 3655.32 3010.75 3660.73 3017.5 3664.6C3024.25 3668.47 3032.28 3670.41 3041.61 3670.41C3048.06 3670.41 3053.91 3669.51 3059.17 3667.73C3064.43 3665.94 3068.95 3663.31 3072.72 3659.84C3076.49 3656.37 3079.31 3652.1 3081.2 3647.04L3148.02 3648.97C3145.25 3663.96 3139.14 3677 3129.72 3688.12C3120.39 3699.13 3108.14 3707.71 3092.96 3713.86C3077.78 3719.92 3060.21 3722.94 3040.27 3722.94Z" stroke="url(#paint23_linear_397_2)" stroke-width="20" mask="url(#path-4-outside-2_397_2)"/>
<path d="M3233.57 3588.25V3718.63H3160.79V3490.02H3230V3531.99H3232.53C3237.59 3518 3246.22 3507.04 3258.42 3499.1C3270.63 3491.07 3285.16 3487.05 3302.03 3487.05C3318.11 3487.05 3332.05 3490.67 3343.85 3497.91C3355.76 3505.06 3364.99 3515.08 3371.54 3527.98C3378.18 3540.78 3381.46 3555.76 3381.36 3572.92V3718.63H3308.58V3587.21C3308.68 3574.51 3305.46 3564.59 3298.91 3557.44C3292.46 3550.3 3283.48 3546.73 3271.97 3546.73C3264.33 3546.73 3257.58 3548.42 3251.73 3551.79C3245.97 3555.06 3241.51 3559.78 3238.33 3565.93C3235.26 3572.08 3233.67 3579.52 3233.57 3588.25Z" stroke="url(#paint24_linear_397_2)" stroke-width="20" mask="url(#path-4-outside-2_397_2)"/>
<path d="M3530.31 3490.02V3543.6H3386.09V3490.02H3530.31ZM3416.3 3435.26H3489.08V3646.74C3489.08 3651.21 3489.77 3654.83 3491.16 3657.61C3492.65 3660.29 3494.78 3662.22 3497.56 3663.41C3500.34 3664.5 3503.67 3665.05 3507.53 3665.05C3510.31 3665.05 3513.24 3664.8 3516.32 3664.3C3519.49 3663.71 3521.87 3663.21 3523.46 3662.82L3534.47 3715.35C3531 3716.34 3526.09 3717.59 3519.74 3719.07C3513.49 3720.56 3506 3721.5 3497.27 3721.9C3480.2 3722.69 3465.56 3720.71 3453.36 3715.95C3441.26 3711.09 3431.98 3703.55 3425.53 3693.33C3419.18 3683.11 3416.1 3670.26 3416.3 3654.78V3435.26Z" stroke="url(#paint25_linear_397_2)" stroke-width="20" mask="url(#path-4-outside-2_397_2)"/>
<path d="M3646.7 3722.94C3622.78 3722.94 3602.15 3718.23 3584.78 3708.8C3567.52 3699.28 3554.22 3685.74 3544.9 3668.17C3535.67 3650.51 3531.06 3629.53 3531.06 3605.22C3531.06 3581.6 3535.72 3560.97 3545.05 3543.31C3554.37 3525.55 3567.52 3511.75 3584.49 3501.93C3601.45 3492.01 3621.44 3487.05 3644.46 3487.05C3660.74 3487.05 3675.62 3489.58 3689.11 3494.64C3702.61 3499.7 3714.27 3507.19 3724.09 3517.11C3733.91 3527.03 3741.55 3539.29 3747.01 3553.87C3752.46 3568.36 3755.19 3584.98 3755.19 3603.73V3621.89H3556.51V3579.62H3687.48C3687.38 3571.88 3685.54 3564.98 3681.97 3558.93C3678.4 3552.88 3673.49 3548.17 3667.23 3544.79C3661.08 3541.32 3653.99 3539.58 3645.95 3539.58C3637.82 3539.58 3630.52 3541.42 3624.07 3545.09C3617.62 3548.66 3612.51 3553.57 3608.74 3559.83C3604.97 3565.98 3602.99 3572.97 3602.79 3580.81V3623.82C3602.79 3633.15 3604.63 3641.33 3608.3 3648.38C3611.97 3655.32 3617.18 3660.73 3623.93 3664.6C3630.67 3668.47 3638.71 3670.41 3648.04 3670.41C3654.49 3670.41 3660.34 3669.51 3665.6 3667.73C3670.86 3665.94 3675.37 3663.31 3679.14 3659.84C3682.91 3656.37 3685.74 3652.1 3687.62 3647.04L3754.45 3648.97C3751.67 3663.96 3745.57 3677 3736.14 3688.12C3726.82 3699.13 3714.56 3707.71 3699.38 3713.86C3684.2 3719.92 3666.64 3722.94 3646.7 3722.94Z" stroke="url(#paint26_linear_397_2)" stroke-width="20" mask="url(#path-4-outside-2_397_2)"/>
<path d="M3767.22 3718.63V3490.02H3837.91V3531.7H3840.29C3844.46 3516.62 3851.26 3505.4 3860.68 3498.06C3870.11 3490.62 3881.07 3486.9 3893.57 3486.9C3896.95 3486.9 3900.42 3487.15 3903.99 3487.64C3907.56 3488.04 3910.89 3488.68 3913.96 3489.58V3552.83C3910.49 3551.64 3905.93 3550.7 3900.27 3550C3894.71 3549.31 3889.75 3548.96 3885.39 3548.96C3876.76 3548.96 3868.97 3550.9 3862.02 3554.77C3855.18 3558.54 3849.77 3563.84 3845.8 3570.69C3841.93 3577.44 3839.99 3585.37 3839.99 3594.5V3718.63H3767.22Z" stroke="url(#paint27_linear_397_2)" stroke-width="20" mask="url(#path-4-outside-2_397_2)"/>
<path d="M3991.52 3723.18C3980.47 3723.18 3971.01 3719.29 3963.14 3711.52C3955.36 3703.75 3951.53 3694.34 3951.63 3683.29C3951.53 3672.45 3955.36 3663.2 3963.14 3655.53C3971.01 3647.75 3980.47 3643.87 3991.52 3643.87C4001.95 3643.87 4011.15 3647.75 4019.13 3655.53C4027.21 3663.2 4031.3 3672.45 4031.4 3683.29C4031.3 3690.66 4029.36 3697.36 4025.57 3703.39C4021.89 3709.42 4017.04 3714.23 4011 3717.81C4005.07 3721.39 3998.57 3723.18 3991.52 3723.18Z" stroke="url(#paint28_linear_397_2)" stroke-width="20" mask="url(#path-4-outside-2_397_2)"/>
<defs>
<linearGradient id="paint0_linear_397_2" x1="1302" y1="65" x2="3660" y2="2372" gradientUnits="userSpaceOnUse">
<stop offset="0.25" stop-color="#7B2CBF"/>
<stop offset="0.5" stop-color="#FF7A00"/>
<stop offset="0.75" stop-color="#347B6D"/>
</linearGradient>
<linearGradient id="paint1_linear_397_2" x1="332" y1="2881.11" x2="4630.95" y2="2881.11" gradientUnits="userSpaceOnUse">
<stop stop-color="#FF7A00"/>
<stop offset="1" stop-color="#7B2CBF"/>
</linearGradient>
<linearGradient id="paint2_linear_397_2" x1="332" y1="2881.11" x2="4630.95" y2="2881.11" gradientUnits="userSpaceOnUse">
<stop stop-color="#FF7A00"/>
<stop offset="1" stop-color="#7B2CBF"/>
</linearGradient>
<linearGradient id="paint3_linear_397_2" x1="332" y1="2881.11" x2="4630.95" y2="2881.11" gradientUnits="userSpaceOnUse">
<stop stop-color="#FF7A00"/>
<stop offset="1" stop-color="#7B2CBF"/>
</linearGradient>
<linearGradient id="paint4_linear_397_2" x1="332" y1="2881.11" x2="4630.95" y2="2881.11" gradientUnits="userSpaceOnUse">
<stop stop-color="#FF7A00"/>
<stop offset="1" stop-color="#7B2CBF"/>
</linearGradient>
<linearGradient id="paint5_linear_397_2" x1="332" y1="2881.11" x2="4630.95" y2="2881.11" gradientUnits="userSpaceOnUse">
<stop stop-color="#FF7A00"/>
<stop offset="1" stop-color="#7B2CBF"/>
</linearGradient>
<linearGradient id="paint6_linear_397_2" x1="332" y1="2881.11" x2="4630.95" y2="2881.11" gradientUnits="userSpaceOnUse">
<stop stop-color="#FF7A00"/>
<stop offset="1" stop-color="#7B2CBF"/>
</linearGradient>
<linearGradient id="paint7_linear_397_2" x1="332" y1="2881.11" x2="4630.95" y2="2881.11" gradientUnits="userSpaceOnUse">
<stop stop-color="#FF7A00"/>
<stop offset="1" stop-color="#7B2CBF"/>
</linearGradient>
<linearGradient id="paint8_linear_397_2" x1="332" y1="2881.11" x2="4630.95" y2="2881.11" gradientUnits="userSpaceOnUse">
<stop stop-color="#FF7A00"/>
<stop offset="1" stop-color="#7B2CBF"/>
</linearGradient>
<linearGradient id="paint9_linear_397_2" x1="332" y1="2881.11" x2="4630.95" y2="2881.11" gradientUnits="userSpaceOnUse">
<stop stop-color="#FF7A00"/>
<stop offset="1" stop-color="#7B2CBF"/>
</linearGradient>
<linearGradient id="paint10_linear_397_2" x1="332" y1="2881.11" x2="4630.95" y2="2881.11" gradientUnits="userSpaceOnUse">
<stop stop-color="#FF7A00"/>
<stop offset="1" stop-color="#7B2CBF"/>
</linearGradient>
<linearGradient id="paint11_linear_397_2" x1="332" y1="2881.11" x2="4630.95" y2="2881.11" gradientUnits="userSpaceOnUse">
<stop stop-color="#FF7A00"/>
<stop offset="1" stop-color="#7B2CBF"/>
</linearGradient>
<linearGradient id="paint12_linear_397_2" x1="332" y1="2881.11" x2="4630.95" y2="2881.11" gradientUnits="userSpaceOnUse">
<stop stop-color="#FF7A00"/>
<stop offset="1" stop-color="#7B2CBF"/>
</linearGradient>
<linearGradient id="paint13_linear_397_2" x1="332" y1="2881.11" x2="4630.95" y2="2881.11" gradientUnits="userSpaceOnUse">
<stop stop-color="#FF7A00"/>
<stop offset="1" stop-color="#7B2CBF"/>
</linearGradient>
<linearGradient id="paint14_linear_397_2" x1="905.281" y1="3558.53" x2="4031.4" y2="3558.53" gradientUnits="userSpaceOnUse">
<stop stop-color="#FF7A00"/>
<stop offset="1" stop-color="#7B2CBF"/>
</linearGradient>
<linearGradient id="paint15_linear_397_2" x1="905.281" y1="3558.53" x2="4031.4" y2="3558.53" gradientUnits="userSpaceOnUse">
<stop stop-color="#FF7A00"/>
<stop offset="1" stop-color="#7B2CBF"/>
</linearGradient>
<linearGradient id="paint16_linear_397_2" x1="905.281" y1="3558.53" x2="4031.4" y2="3558.53" gradientUnits="userSpaceOnUse">
<stop stop-color="#FF7A00"/>
<stop offset="1" stop-color="#7B2CBF"/>
</linearGradient>
<linearGradient id="paint17_linear_397_2" x1="905.281" y1="3558.53" x2="4031.4" y2="3558.53" gradientUnits="userSpaceOnUse">
<stop stop-color="#FF7A00"/>
<stop offset="1" stop-color="#7B2CBF"/>
</linearGradient>
<linearGradient id="paint18_linear_397_2" x1="905.281" y1="3558.53" x2="4031.4" y2="3558.53" gradientUnits="userSpaceOnUse">
<stop stop-color="#FF7A00"/>
<stop offset="1" stop-color="#7B2CBF"/>
</linearGradient>
<linearGradient id="paint19_linear_397_2" x1="905.281" y1="3558.53" x2="4031.4" y2="3558.53" gradientUnits="userSpaceOnUse">
<stop stop-color="#FF7A00"/>
<stop offset="1" stop-color="#7B2CBF"/>
</linearGradient>
<linearGradient id="paint20_linear_397_2" x1="905.281" y1="3558.53" x2="4031.4" y2="3558.53" gradientUnits="userSpaceOnUse">
<stop stop-color="#FF7A00"/>
<stop offset="1" stop-color="#7B2CBF"/>
</linearGradient>
<linearGradient id="paint21_linear_397_2" x1="905.281" y1="3558.53" x2="4031.4" y2="3558.53" gradientUnits="userSpaceOnUse">
<stop stop-color="#FF7A00"/>
<stop offset="1" stop-color="#7B2CBF"/>
</linearGradient>
<linearGradient id="paint22_linear_397_2" x1="905.281" y1="3558.53" x2="4031.4" y2="3558.53" gradientUnits="userSpaceOnUse">
<stop stop-color="#FF7A00"/>
<stop offset="1" stop-color="#7B2CBF"/>
</linearGradient>
<linearGradient id="paint23_linear_397_2" x1="905.281" y1="3558.53" x2="4031.4" y2="3558.53" gradientUnits="userSpaceOnUse">
<stop stop-color="#FF7A00"/>
<stop offset="1" stop-color="#7B2CBF"/>
</linearGradient>
<linearGradient id="paint24_linear_397_2" x1="905.281" y1="3558.53" x2="4031.4" y2="3558.53" gradientUnits="userSpaceOnUse">
<stop stop-color="#FF7A00"/>
<stop offset="1" stop-color="#7B2CBF"/>
</linearGradient>
<linearGradient id="paint25_linear_397_2" x1="905.281" y1="3558.53" x2="4031.4" y2="3558.53" gradientUnits="userSpaceOnUse">
<stop stop-color="#FF7A00"/>
<stop offset="1" stop-color="#7B2CBF"/>
</linearGradient>
<linearGradient id="paint26_linear_397_2" x1="905.281" y1="3558.53" x2="4031.4" y2="3558.53" gradientUnits="userSpaceOnUse">
<stop stop-color="#FF7A00"/>
<stop offset="1" stop-color="#7B2CBF"/>
</linearGradient>
<linearGradient id="paint27_linear_397_2" x1="905.281" y1="3558.53" x2="4031.4" y2="3558.53" gradientUnits="userSpaceOnUse">
<stop stop-color="#FF7A00"/>
<stop offset="1" stop-color="#7B2CBF"/>
</linearGradient>
<linearGradient id="paint28_linear_397_2" x1="905.281" y1="3558.53" x2="4031.4" y2="3558.53" gradientUnits="userSpaceOnUse">
<stop stop-color="#FF7A00"/>
<stop offset="1" stop-color="#7B2CBF"/>
</linearGradient>
</defs>
</svg>
